<svg version="1.1" id="Capa_1" xmlns="http://www.w3.org/2000/svg" x="0" y="0" viewBox="0 0 494.5 445.1" xml:space="preserve"><style>.st0{fill:none;stroke:currentColor;stroke-width:14;stroke-linecap:round;stroke-linejoin:round}</style><circle class="st0" cx="74.8" cy="82.4" r="44.5"/><circle class="st0" cx="427.5" cy="81.3" r="44.5"/><path class="st0" d="M80.8 295.7h-12c-21.3 0-38.5-17.2-38.5-38.5v-81.7c0-10.9 8.8-19.7 19.7-19.7h49.6c10.9 0 19.7 8.8 19.7 19.7v81.7c0 21.3-17.2 38.5-38.5 38.5z"/><path class="st0" d="M43 287.6v134.1L9.5 433.3M105.4 288.8v131.7l31.3 13.9M34.9 251.2h79.8M467.7 244.8h-85.3v-65.7c0-11.6 9.4-21 21-21H449c11.6 0 21 9.4 18.7 21v65.7zM388.9 245.8h74.9c12.2 0 22.1 9.9 22.1 22.1v25.5H366.8v-25.5c0-12.2 9.9-22.1 22.1-22.1zM394.6 296.9v122.5l-28.9 13.9M454.7 296.9v122.5l28.9 12.7M189.2 99.2h-18.4c-6.7 0-12.2-5.4-12.2-12.2v-3.8c0-6.7 5.4-12.2 12.2-12.2h18.4c6.7 0 12.2 5.4 12.2 12.2V87c0 6.7-5.5 12.2-12.2 12.2zM180.9 174.1v-71.4M123.6 175.5h57.3M196.6 175.6h-15.1V147h15.1c6.8 0 12.3 5.5 12.3 12.3v4.1c-.1 6.7-5.6 12.2-12.3 12.2zM316.7 98.5h18.4c6.7 0 12.2-5.4 12.2-12.2v-3.8c0-6.7-5.4-12.2-12.2-12.2h-18.4c-6.7 0-12.2 5.4-12.2 12.2v3.8c.1 6.8 5.5 12.2 12.2 12.2zM325 173.5V102M382.3 174.9H325M309.4 175h15.1v-28.6h-15.1c-6.8 0-12.3 5.5-12.3 12.3v4.1c0 6.7 5.5 12.2 12.3 12.2zM328.2 433.9H172.5c-14.7 0-26.6-11.9-26.6-26.6V399c0-14.7 11.9-26.6 26.6-26.6h155.7c14.7 0 26.6 11.9 26.6 26.6v8.3c.1 14.7-11.9 26.6-26.6 26.6z"/><path class="st0" d="M181 433.7h-8.3c-14.6 0-26.5-11.9-26.5-26.5v-8.3c0-14.6 11.9-26.5 26.5-26.5h8.3c14.6 0 26.5 11.9 26.5 26.5v8.3c0 14.6-11.8 26.5-26.5 26.5zM207.5 403h86.8M324.6 402.7h30.3M280 315.4c0 16-13 29-29 29s-29-13-29-29 28.6-41 28.6-41 29.4 25 29.4 41z"/><path class="st0" d="M319.1 305.4c0 36.9-30.3 66.7-67.7 66.7s-67.7-29.9-67.7-66.7c0-20.3 28-81.4 28-81.4l15.6 10.4 23.8-23.8 21 23 17.6-11.1c-.1.1 29.4 59.6 29.4 82.9z"/></svg>
