<svg xmlns="http://www.w3.org/2000/svg" viewBox="0 0 512.001 512.001"><path fill="currentColor" d="M232.501 270c20.678 0 37.5-16.822 37.5-37.5V200h7.5c12.407 0 22.5-10.094 22.5-22.5s-10.093-22.5-22.5-22.5h-7.5V7.5a7.5 7.5 0 00-7.5-7.5 7.5 7.5 0 00-7.5 7.5V185h-46.048c-2.378-8.375-8.63-15.132-16.691-18.204 10.869-9.626 17.739-23.67 17.739-39.296v-30c0-28.948-23.551-52.5-52.5-52.5s-52.5 23.552-52.5 52.5v30c0 15.626 6.87 29.67 17.739 39.296-7.974 3.039-14.179 9.684-16.614 17.933-42.52-3.268-76.125-38.886-76.125-82.229 0-4.143-3.358-7.5-7.5-7.5s-7.5 3.357-7.5 7.5c0 51.239 39.729 93.372 90 97.214V255h-7.5c-4.142 0-7.5 3.357-7.5 7.5s3.358 7.5 7.5 7.5h7.5v15h-7.5c-12.407 0-22.5 10.094-22.5 22.5v75c0 12.406 10.093 22.5 22.5 22.5s22.5-10.094 22.5-22.5v-53.308c7.882 8.054 18.324 13.586 30 15.264v60.759l-43.726 65.104a7.494 7.494 0 00-1.274 4.182v30a7.5 7.5 0 007.5 7.5 7.5 7.5 0 007.5-7.5v-27.715l43.726-65.104a7.494 7.494 0 001.274-4.182V345h97.5c4.136 0 7.5 3.364 7.5 7.5a7.475 7.475 0 01-5.198 7.135l-79.609 25.729a7.5 7.5 0 00-5.193 7.137v30a7.5 7.5 0 007.5 7.5 7.5 7.5 0 007.5-7.5v-24.542l74.412-24.049a22.435 22.435 0 0015.588-21.41c0-12.406-10.093-22.5-22.5-22.5h-52.5v-60h22.5zm37.5-100h7.5c4.136 0 7.5 3.364 7.5 7.5s-3.364 7.5-7.5 7.5h-7.5v-15zm-60 30h45v32.5c0 12.406-10.093 22.5-22.5 22.5h-22.5v-55zm-105 182.5c0 4.136-3.364 7.5-7.5 7.5s-7.5-3.364-7.5-7.5v-23.79a22.38 22.38 0 007.5 1.29c2.629 0 5.153-.458 7.5-1.29v23.79zm0-45c0 4.136-3.364 7.5-7.5 7.5s-7.5-3.364-7.5-7.5v-30c0-4.136 3.364-7.5 7.5-7.5h7.5v37.5zm15-240c0-20.678 16.822-37.5 37.5-37.5s37.5 16.822 37.5 37.5v2.5h-15.14c-5.652-6.324-13.746-10-22.36-10s-16.708 3.676-22.36 10h-15.14v-2.5zm0 30V115h18.792a7.5 7.5 0 006.232-3.327A14.991 14.991 0 01157.502 105c5.016 0 9.679 2.494 12.477 6.673a7.5 7.5 0 006.232 3.327h18.79v12.5c0 20.678-16.822 37.5-37.5 37.5s-37.5-16.822-37.5-37.5zm75 202.5h-37.5c-18.11 0-33.261-12.904-36.745-30h74.245v30zm0-45h-75v-15h75v15zm0-30h-75v-62.5c0-6.893 5.607-12.5 12.5-12.5h50c6.893 0 12.5 5.607 12.5 12.5V255z"/><path fill="currentColor" d="M489.501 165a7.5 7.5 0 00-7.5 7.5v41.894l-27.803 27.803a7.5 7.5 0 00-2.197 5.304v257a7.5 7.5 0 007.5 7.5 7.5 7.5 0 007.5-7.5V250.606l27.803-27.803a7.5 7.5 0 002.197-5.304v-45a7.5 7.5 0 00-7.5-7.499zM489.501 0a7.5 7.5 0 00-7.5 7.5v135a7.5 7.5 0 007.5 7.5 7.5 7.5 0 007.5-7.5V7.5a7.5 7.5 0 00-7.5-7.5zM434.804 439.196l-27.803-27.802V7.5a7.5 7.5 0 00-7.5-7.5 7.5 7.5 0 00-7.5 7.5v176.893l-75-75V7.5a7.5 7.5 0 00-7.5-7.5 7.5 7.5 0 00-7.5 7.5v105c0 1.989.79 3.896 2.197 5.304l87.803 87.803V414.5c0 1.989.79 3.896 2.197 5.304l27.803 27.802V504.5a7.5 7.5 0 007.5 7.5 7.5 7.5 0 007.5-7.5v-60c0-1.989-.79-3.896-2.197-5.304z"/></svg>
