<svg xmlns="http://www.w3.org/2000/svg" viewBox="0 0 512.002 512.002"><path fill="currentColor" d="M436.001 285h-75a7.499 7.499 0 00-7.5 7.5v20c0 12.406 10.094 22.5 22.5 22.5h7.5v26.146l-75 12.5V327.5c0-4.143-3.357-7.5-7.5-7.5s-7.5 3.357-7.5 7.5v177c0 4.143 3.357 7.5 7.5 7.5s7.5-3.357 7.5-7.5v-33.263c14.67-2.991 26.256-14.567 29.247-29.237h15.753v62.5c0 4.143 3.357 7.5 7.5 7.5s7.5-3.357 7.5-7.5V442h45v62.5c0 4.143 3.357 7.5 7.5 7.5s7.5-3.357 7.5-7.5V442h15v62.5c0 4.143 3.357 7.5 7.5 7.5s7.5-3.357 7.5-7.5v-197c0-12.406-10.094-22.5-22.5-22.5zm-60 35c-4.136 0-7.5-3.364-7.5-7.5V300h46.29a22.38 22.38 0 00-1.29 7.5V320h-37.5zm67.5 107h-112.5a7.499 7.499 0 00-7.5 7.5c0 9.777-6.271 18.114-15 21.21v-66.857l83.733-13.956a7.5 7.5 0 006.267-7.397V335h15v17.5c0 12.406 10.094 22.5 22.5 22.5 2.629 0 5.153-.458 7.5-1.29V427zm0-74.5c0 4.136-3.364 7.5-7.5 7.5s-7.5-3.364-7.5-7.5v-45c0-4.136 3.364-7.5 7.5-7.5s7.5 3.364 7.5 7.5v45z"/><path fill="currentColor" d="M258.747 314.289c2.348.462 4.772.71 7.254.71h5c4.143 0 7.5-3.357 7.5-7.5V199.714c50.271-3.842 90-45.976 90-97.214 0-4.143-3.357-7.5-7.5-7.5s-7.5 3.357-7.5 7.5c0 43.343-33.605 78.961-76.125 82.229-3.362-11.39-13.91-19.729-26.375-19.729h-80c-15.163 0-27.5 12.337-27.5 27.5V215h-15V7.5c0-4.143-3.357-7.5-7.5-7.5s-7.5 3.357-7.5 7.5V135h-22.5a7.499 7.499 0 00-7.5 7.5V185h-7.5c-12.406 0-22.5 10.094-22.5 22.5s10.094 22.5 22.5 22.5a37.416 37.416 0 00-7.5 22.5v45c0 4.143 3.357 7.5 7.5 7.5h30c4.143 0 7.5-3.357 7.5-7.5V230h30v77.5c0 4.143 3.357 7.5 7.5 7.5h5c2.482 0 4.906-.248 7.254-.71a52.389 52.389 0 0010.246 14.868v159.937l-24.872 8.29a7.5 7.5 0 104.744 14.23l30-10a7.5 7.5 0 005.128-7.115V339.878c6.894 3.295 14.552 5.122 22.5 5.122s15.606-1.827 22.5-5.122V494.5a7.497 7.497 0 005.128 7.115l30 10a7.504 7.504 0 002.373.387 7.502 7.502 0 002.371-14.617l-24.872-8.29V329.157a52.389 52.389 0 0010.246-14.868zM68.501 207.5c0-4.136 3.364-7.5 7.5-7.5h7.5v15h-7.5c-4.136 0-7.5-3.364-7.5-7.5zm30 82.5h-15v-37.5c0-9.778 6.27-18.119 15-21.215V290zm15-75h-15v-15h15v15zm0-30h-15v-35h15v35zm130-5h7.5c6.893 0 12.5 5.607 12.5 12.5v7.5h-20v-20zm0 35h20v30h-20v-30zm-49.999 62.5V180h34.999v97.5c0 2.568.261 5.076.755 7.5h-36.509c.494-2.424.755-4.932.755-7.5zm-35.001-85c0-6.893 5.607-12.5 12.5-12.5h7.5v20h-20v-7.5zm0 22.5h20v30h-20v-30zm0 84.862V260h20v17.5c0 11.562-8.766 21.114-20 22.362zm52.5 30.138c-14.585 0-27.799-8.606-33.911-21.511a37.812 37.812 0 008.89-8.489h50.041a37.812 37.812 0 008.89 8.489C238.8 321.394 225.586 330 211.001 330zm32.5-52.5V260h20v39.862c-11.234-1.248-20-10.8-20-22.362z"/><path fill="currentColor" d="M286.001 75h-23.044c-3.652-25.407-25.554-45-51.956-45-28.948 0-52.5 23.552-52.5 52.5v15c0 28.948 23.552 52.5 52.5 52.5s52.5-23.552 52.5-52.5V90h22.5c4.143 0 7.5-3.357 7.5-7.5s-3.357-7.5-7.5-7.5zm-75-30c18.11 0 33.261 12.904 36.745 30h-73.491c3.485-17.096 18.636-30 36.746-30zm37.5 52.5c0 20.678-16.822 37.5-37.5 37.5s-37.5-16.822-37.5-37.5V90h75v7.5z"/></svg>
