<svg data-name="Capa 1" xmlns="http://www.w3.org/2000/svg" viewBox="0 0 494.54 445.08"><path fill="none" stroke="currentColor" stroke-linecap="round" stroke-linejoin="round" stroke-width="14" d="M158.73 244.61H80.72M105.05 159.44c49.39 48.67 100.2 40.08 122.39 40.08M228.15 174.47v263.38"/><path d="M97.35 133.68h44A17.35 17.35 0 01158.73 151v93.58A39.36 39.36 0 01119.36 284h0A39.36 39.36 0 0180 244.61V151a17.35 17.35 0 0117.35-17.32z" fill="none" stroke="currentColor" stroke-linecap="round" stroke-linejoin="round" stroke-width="14"/><circle cx="118.12" cy="65.66" r="40.08" fill="none" stroke="currentColor" stroke-linecap="round" stroke-linejoin="round" stroke-width="14"/><path fill="none" stroke="currentColor" stroke-linecap="round" stroke-linejoin="round" stroke-width="14" d="M145.84 273.95V435.7h39.37M91.45 271.81v78.72l-73 25.05v41.51M43.5 99.92h0a36.5 36.5 0 0136.5 36.5v108.19h0-49.94A23.06 23.06 0 017 221.55v-85.13a36.5 36.5 0 0136.5-36.5zM7 135.93h73M7 174.93h25.77M418.12 244.84h-78.01M364.45 159.68c49.38 48.66 100.19 40.07 122.38 40.07M487.54 174.71v263.37"/><rect x="340.67" y="7" width="77.69" height="99.99" rx="38.85" fill="none" stroke="currentColor" stroke-linecap="round" stroke-linejoin="round" stroke-width="14"/><path fill="none" stroke="currentColor" stroke-linecap="round" stroke-linejoin="round" stroke-width="14" d="M341.74 48.35h102.34M356.74 133.91h44a17.35 17.35 0 0117.35 17.35v93.58a39.36 39.36 0 01-39.36 39.36h0a39.36 39.36 0 01-39.36-39.36v-93.58a17.35 17.35 0 0117.37-17.35z"/><path fill="none" stroke="currentColor" stroke-linecap="round" stroke-linejoin="round" stroke-width="14" d="M405.24 274.19v161.75h39.36M350.85 272.04v78.73l-73.01 25.05v41.51M302.89 100.16h0a36.5 36.5 0 0136.5 36.5v108.18h0-49.86a23.14 23.14 0 01-23.14-23.14v-85a36.5 36.5 0 0136.5-36.54zM266.39 136.17h73M274.42 201.09h25.77"/></svg>
