<svg xmlns="http://www.w3.org/2000/svg" viewBox="0 0 512 512"><path d="M407.5 303c-18.113 0-35.163 4.635-50.031 12.777l-18.219-28.35v-58.812h23.25c12.407 0 22.5 10.094 22.5 22.5a7.5 7.5 0 007.5 7.5 7.5 7.5 0 007.5-7.5c0-20.678-16.822-37.5-37.5-37.5h-29.263l-77.617-32.15 2.529-6.106c5.803-14.009-.874-30.128-14.883-35.931l-46.193-19.134a27.342 27.342 0 00-10.517-2.1 27.43 27.43 0 00-25.415 16.981l-38.268 92.389c-5.366 12.956-5.366 27.226 0 40.182 5.366 12.956 15.457 23.046 28.413 28.412l72.345 29.967.369 51.429a7.5 7.5 0 007.499 7.446h.055a7.5 7.5 0 007.446-7.554l-.405-56.4a7.5 7.5 0 00-4.63-6.875l-42.962-17.796c12.834-5.158 23.354-15.292 28.878-28.628l29.999-72.424 74.37 30.805v56.002h-90.712c-4.142 0-7.5 3.357-7.5 7.5s3.358 7.5 7.5 7.5h84.477L251.905 400h-43.177c-2.381-33.41-20.538-62.523-47.044-79.921a7.453 7.453 0 00-.682-.498 7.759 7.759 0 00-.706-.4C144.141 308.939 125.002 303 104.5 303 46.878 303 0 349.879 0 407.5S46.878 512 104.5 512c55.099 0 100.37-42.866 104.228-97H256a7.502 7.502 0 006.31-3.445l69.44-108.052 13.112 20.403C319.461 342.987 303 373.357 303 407.5c0 57.621 46.878 104.5 104.5 104.5S512 465.121 512 407.5 465.122 303 407.5 303zm-236.141-17.832c-4.919 0-9.742-.965-14.333-2.866-9.254-3.834-16.461-11.041-20.294-20.295-2.858-6.899-3.582-14.321-2.179-21.486l67.887 28.12a37.377 37.377 0 01-31.081 16.527zm72.932-115.549l-2.529 6.106-18.704-7.748a7.496 7.496 0 00-9.799 4.059 7.5 7.5 0 004.059 9.799l18.704 7.748-27.13 65.495-69.291-28.701L175 140.917a12.473 12.473 0 0111.556-7.722c1.636 0 3.243.322 4.776.957l46.193 19.134c6.368 2.639 9.403 9.965 6.766 16.333zM104.5 497C55.149 497 15 456.851 15 407.5S55.149 318 104.5 318c15.129 0 29.39 3.778 41.898 10.433L98.19 403.445a7.5 7.5 0 006.31 11.554h59.011c-3.701 29.278-28.744 52-59.011 52C71.691 467 45 440.309 45 407.5S71.691 348 104.5 348c2.081 0 4.219.115 6.357.343a7.501 7.501 0 001.586-14.916 75.476 75.476 0 00-7.944-.427C63.42 333 30 366.421 30 407.5S63.42 482 104.5 482c38.548 0 70.35-29.43 74.123-67h15.06c-3.823 45.854-42.358 82-89.183 82zm59.031-97h-45.295l24.479-38.091c11.534 9.648 18.942 23.204 20.816 38.091zm15.09 0c-2.002-20.017-11.965-38.252-27.747-50.787l8.13-12.651c19.404 14.944 32.529 37.655 34.679 63.438h-15.062zm235.189 3.445l-31.907-49.648A59.135 59.135 0 01407.5 348c32.809 0 59.5 26.691 59.5 59.5S440.309 467 407.5 467 348 440.309 348 407.5c0-18.276 8.289-34.647 21.298-45.571l31.892 49.625a7.494 7.494 0 0010.364 2.255 7.5 7.5 0 002.256-10.364zM407.5 497c-49.351 0-89.5-40.149-89.5-89.5 0-28.855 13.73-54.56 34.996-70.938l8.149 12.68C344.011 362.904 333 383.934 333 407.5c0 41.079 33.42 74.5 74.5 74.5s74.5-33.421 74.5-74.5-33.42-74.5-74.5-74.5a74.012 74.012 0 00-33.747 8.115l-8.15-12.682C378.11 321.778 392.371 318 407.5 318c49.351 0 89.5 40.149 89.5 89.5S456.851 497 407.5 497zM331 45h-23.044C304.304 19.593 282.402 0 256 0c-28.949 0-52.5 23.552-52.5 52.5v15c0 28.948 23.551 52.5 52.5 52.5s52.5-23.552 52.5-52.5V60H331c4.142 0 7.5-3.357 7.5-7.5S335.142 45 331 45zm-75-30c18.11 0 33.261 12.904 36.745 30h-73.491C222.739 27.904 237.89 15 256 15zm37.5 52.5c0 20.678-16.822 37.5-37.5 37.5s-37.5-16.822-37.5-37.5V60h75v7.5z"/></svg>
