<svg version="1.1" id="Capa_1" xmlns="http://www.w3.org/2000/svg" x="0" y="0" viewBox="0 0 278.4 454.8" xml:space="preserve"><style>.st0{fill:none;stroke:#000;stroke-width:14;stroke-linecap:round;stroke-linejoin:round}</style><g id="hiker"><path class="st0" d="M186.7 243.5h-74.8M230.1 137.8v288.4M188.1 203.9h40.5M230.4 179.3h13.5c6.7 0 12.1 5.4 12.1 12.1 0 6.7-5.4 12.1-12.1 12.1h-13.5v-24.2zM126.8 137.1h44.5c8.6 0 15.5 7 15.5 15.5v93.5c0 19.4-15.7 35.2-35.2 35.2h-5.3c-19.4 0-35.2-15.7-35.2-35.2v-93.6c.1-8.6 7.1-15.4 15.7-15.4z"/><circle class="st0" cx="147.8" cy="71.8" r="38.5"/><path class="st0" d="M174.4 275.1v137.4l28.8 11.6M122.2 272.7v75.7l-36.3 48.8v29.6M110.8 158.2C38.4 155.2 20 97.9 20 67.7"/></g></svg>
