<svg viewBox="-33 0 512 512.001" xmlns="http://www.w3.org/2000/svg"><path fill="currentColor" d="M131 259.86V192.5c0-15.164-12.336-27.5-27.5-27.5h-50C38.336 165 26 177.336 26 192.5v67.36c-5.762 7.574-22.664 33.218-25.977 77.074a7.492 7.492 0 003.559 6.96c.75.458 13.504 8.094 37.418 12.684v132.516l-24.871 8.289a7.5 7.5 0 00-4.742 9.488 7.497 7.497 0 009.484 4.742l30-10A7.499 7.499 0 0056 494.5V358.805c6.86.742 14.352 1.195 22.5 1.195 8.152 0 15.645-.453 22.5-1.195V494.5a7.499 7.499 0 005.129 7.113l30 10a7.495 7.495 0 002.371.387 7.511 7.511 0 007.117-5.129 7.503 7.503 0 00-4.746-9.488L116 489.093V356.579c23.918-4.59 36.668-12.226 37.418-12.683a7.502 7.502 0 003.562-6.961c-3.312-43.856-20.218-69.5-25.98-77.075zM53.5 180h50c6.895 0 12.5 5.605 12.5 12.5V255H41v-62.5c0-6.895 5.61-12.5 12.5-12.5zm25 165c-33.168 0-54.648-8.016-63.074-11.879 3.652-35.012 16.777-56.2 21.75-63.121h82.672c4.988 6.871 18.066 27.86 21.73 63.121C133.156 336.984 111.672 345 78.5 345zm0 0M440.871 497.383L416 489.093V333.536h22.5c4.14 0 7.5-3.36 7.5-7.5V192.5c0-15.164-12.336-27.5-27.5-27.5h-80c-15.164 0-27.5 12.336-27.5 27.5v133.535c0 4.14 3.36 7.5 7.5 7.5H341v155.559l-24.871 8.289a7.503 7.503 0 00-4.746 9.488 7.51 7.51 0 007.113 5.129c.79 0 1.586-.125 2.375-.387l30-10A7.499 7.499 0 00356 494.5V339.926A52.37 52.37 0 00378.5 345c7.86 0 15.527-1.766 22.5-5.074V494.5a7.495 7.495 0 005.125 7.113l30 10a7.503 7.503 0 009.488-4.742 7.498 7.498 0 00-4.742-9.488zM431 192.5v126.035h-15V180h2.5c6.89 0 12.5 5.605 12.5 12.5zM356 180h45v105h-45zm-30 138.535V192.5c0-6.895 5.605-12.5 12.5-12.5h2.5v138.535zM378.5 330a37.43 37.43 0 01-22.5-7.504V300h45v22.496A37.438 37.438 0 01378.5 330zm0 0M228.5 205c28.95 0 52.5-23.55 52.5-52.5S257.45 100 228.5 100 176 123.55 176 152.5s23.55 52.5 52.5 52.5zm36.652-60.422c-20.156-2-38.582-11.21-52.297-26.144A37.237 37.237 0 01228.5 115c17.96 0 33.004 12.695 36.652 29.578zM200.7 127.36c16.692 18.805 39.574 30.246 64.606 32.301C261.953 176.922 246.73 190 228.5 190c-20.68 0-37.5-16.824-37.5-37.5 0-9.664 3.676-18.484 9.7-25.14zm0 0M290.871 497.383L266 489.093V359.192c9.27-9.472 15-22.421 15-36.691v-75c0-15.164-12.336-27.5-27.5-27.5h-50c-15.164 0-27.5 12.336-27.5 27.5v75c0 14.27 5.73 27.219 15 36.691v129.903l-24.871 8.289a7.503 7.503 0 00-4.746 9.488A7.511 7.511 0 00168.5 512c.785 0 1.586-.125 2.371-.387l30-10A7.499 7.499 0 00206 494.5V369.922A52.182 52.182 0 00228.5 375a52.195 52.195 0 0022.5-5.078V494.5a7.5 7.5 0 005.125 7.113l30 10a7.503 7.503 0 009.488-4.742 7.498 7.498 0 00-4.742-9.488zM203.5 235h50c6.895 0 12.5 5.605 12.5 12.5V315h-75v-67.5c0-6.895 5.605-12.5 12.5-12.5zm-11.746 95h73.492c-3.484 17.094-18.637 30-36.746 30s-33.262-12.906-36.746-30zm0 0M378.5 150c28.95 0 52.5-23.55 52.5-52.5S407.45 45 378.5 45 326 68.55 326 97.5s23.55 52.5 52.5 52.5zm0-90c20.676 0 37.5 16.82 37.5 37.5 0 20.676-16.824 37.5-37.5 37.5-20.68 0-37.5-16.824-37.5-37.5 0-20.68 16.82-37.5 37.5-37.5zm0 0M26 97.5c0 28.95 23.55 52.5 52.5 52.5S131 126.45 131 97.5c0-20.172-11.441-37.71-28.168-46.5C110.882 44.117 116 33.898 116 22.5 116 10.094 105.906 0 93.5 0h-30C51.094 0 41 10.094 41 22.5c0 11.398 5.117 21.617 13.168 28.5C37.441 59.79 26 77.328 26 97.5zM78.5 135C57.824 135 41 118.176 41 97.5c0-9.664 3.676-18.484 9.7-25.14 16.69 18.804 39.577 30.245 64.605 32.3C111.953 121.922 96.73 135 78.5 135zM56 22.5c0-4.137 3.363-7.5 7.5-7.5h30c4.137 0 7.5 3.363 7.5 7.5C101 34.906 90.906 45 78.5 45S56 34.906 56 22.5zm59.152 67.078c-20.156-2-38.582-11.21-52.297-26.144A37.237 37.237 0 0178.5 60c17.96 0 33.004 12.695 36.652 29.578zm0 0"/></svg>
