<svg xmlns="http://www.w3.org/2000/svg" viewBox="0 0 512 512"><path d="M504.5 400h-287c-4.1 0-7.5 3.4-7.5 7.5s3.4 7.5 7.5 7.5h287c4.1 0 7.5-3.4 7.5-7.5s-3.4-7.5-7.5-7.5zm-58.5 0c5 1 11 0 16 0-5 0-11 1-16 0z"/><path d="M387.8 321.8l-12.9-12.9c-1-14.2-8.3-27.2-19.9-35.5v-97c0-65.8-25.6-127.7-72.2-174.3-2.1-2.1-5.4-2.8-8.2-1.6-2.8 1.2-4.6 3.9-4.6 6.9V185h-46c-3.3-11.5-13.9-20-26.5-20h-80c-12.5 0-23 8.3-26.4 19.7-42.5-3.2-76.1-38.9-76.1-82.2 0-4.1-3.4-7.5-7.5-7.5S0 98.4 0 102.5c0 51.2 39.7 93.4 90 97.2v72.8c0 10.7 6.2 20.1 15.2 24.6 1.1 12.4 6.5 23.7 14.8 32.1V400H7.5c-4.1 0-7.5 3.4-7.5 7.5s3.4 7.5 7.5 7.5H120v17H97.5c-4.1 0-7.5 3.4-7.5 7.5v54.6l-9.9 3.3c-3.9 1.3-6.1 5.6-4.7 9.5 1 3.1 4 5.1 7.1 5.1.8 0 1.6-.1 2.4-.4l14.9-5 30.1-10c3.1-1 5.1-3.9 5.1-7.1V415h45v74.5c0 3.2 2.1 6.1 5.1 7.1l30.1 10 14.9 5c.8.3 1.6.4 2.4.4 3.1 0 6.1-2 7.1-5.1 1.3-3.9-.8-8.2-4.7-9.5l-9.9-3.3v-54.6c0-4.1-3.4-7.5-7.5-7.5H195V329.2c8.3-8.4 13.7-19.7 14.8-32.1 9-4.5 15.2-13.8 15.2-24.6V200h45v107.5c0 4.1 3.4 7.5 7.5 7.5s7.5-3.4 7.5-7.5V230h7.5c12.4 0 22.5-10.1 22.5-22.5S304.9 185 292.5 185H285V26.7c35.6 41.8 55 94.3 55 149.8v97c-11.6 8.2-18.9 21.3-19.9 35.5l-12.9 12.9c-2.9 2.9-2.9 7.7 0 10.6 1.5 1.5 3.4 2.2 5.3 2.2s3.8-.7 5.3-2.2l4.8-4.8c2.2 6.4 5.8 12.3 10.5 17.2-8.3 8.8-13.1 20.4-13.1 32.7 0 4.1 3.4 7.5 7.5 7.5h40c4.1 0 7.5-3.4 7.5-7.5 0-12.2-4.8-23.9-13.1-32.7 4.7-4.9 8.2-10.8 10.5-17.2l4.8 4.8c1.5 1.5 3.4 2.2 5.3 2.2s3.8-.7 5.3-2.2c2.9-3 2.9-7.7 0-10.7zM120 484.1l-15 5V447h15v37.1zM117.5 285c-6.9 0-12.5-5.6-12.5-12.5v-80c0-6.9 5.6-12.5 12.5-12.5H150v105h-32.5zM180 400h-45v-60.1c6.8 3.3 14.5 5.1 22.5 5.1s15.7-1.8 22.5-5.1V400zm-22.5-70c-18.1 0-33.3-12.9-36.7-30H150v7.5c0 4.1 3.4 7.5 7.5 7.5s7.5-3.4 7.5-7.5V300h29.2c-3.4 17.1-18.6 30-36.7 30zM210 447v42.1l-15-5V447h15zm0-174.5c0 6.9-5.6 12.5-12.5 12.5H165V180h32.5c6.9 0 12.5 5.6 12.5 12.5v80zm82.5-72.5c4.1 0 7.5 3.4 7.5 7.5s-3.4 7.5-7.5 7.5H285v-15h7.5zm43.4 170c1.7-7.1 5.8-13.5 11.6-18.1 5.9 4.6 9.9 11 11.6 18.1h-23.2zm11.6-32.3c-7.9-6.1-12.5-15.6-12.5-25.6 0-10 4.7-19.5 12.5-25.6 7.8 6.1 12.5 15.6 12.5 25.6 0 10-4.6 19.5-12.5 25.6z"/><path d="M392.5 442h-90c-12.4 0-22.5 10.1-22.5 22.5s10.1 22.5 22.5 22.5c4.1 0 7.5-3.4 7.5-7.5s-3.4-7.5-7.5-7.5-7.5-3.4-7.5-7.5 3.4-7.5 7.5-7.5h90c4.1 0 7.5 3.4 7.5 7.5s-3.4 7.5-7.5 7.5h-60c-4.1 0-7.5 3.4-7.5 7.5s3.4 7.5 7.5 7.5h60c12.4 0 22.5-10.1 22.5-22.5S404.9 442 392.5 442zM177 33.8c1.9-3.3 3-7.2 3-11.3C180 10.1 169.9 0 157.5 0S135 10.1 135 22.5c0 4.1 1.1 7.9 3 11.3-19.3 7.8-33 26.7-33 48.7v15c0 28.9 23.6 52.5 52.5 52.5S210 126.4 210 97.5v-15c0-22.1-13.7-41-33-48.7zM157.5 15c4.1 0 7.5 3.4 7.5 7.5s-3.4 7.5-7.5 7.5-7.5-3.4-7.5-7.5 3.4-7.5 7.5-7.5zm0 30c18.1 0 33.3 12.9 36.7 30h-73.5c3.5-17.1 18.7-30 36.8-30zM195 97.5c0 20.7-16.8 37.5-37.5 37.5S120 118.2 120 97.5V90h75v7.5z"/></svg>
