<svg xmlns="http://www.w3.org/2000/svg" viewBox="0 0 512 512"><circle cx="368.5" cy="57.5" r="7.5"/><path d="M383.5 20h-30C341.1 20 331 30.1 331 42.5v75c0 12.4 10.1 22.5 22.5 22.5h30c12.4 0 22.5-10.1 22.5-22.5v-75c0-12.4-10.1-22.5-22.5-22.5zm7.5 97.5c0 4.1-3.4 7.5-7.5 7.5h-30c-4.1 0-7.5-3.4-7.5-7.5v-75c0-4.1 3.4-7.5 7.5-7.5h30c4.1 0 7.5 3.4 7.5 7.5v75zM368.5 155h-15c-4.1 0-7.5 3.4-7.5 7.5s3.4 7.5 7.5 7.5h15c4.1 0 7.5 3.4 7.5 7.5s-3.4 7.5-7.5 7.5H300c-3.3-11.5-13.9-20-26.5-20h-50c-12.5 0-23 8.3-26.4 19.7-42.5-3.3-76.1-38.9-76.1-82.2 0-4.1-3.4-7.5-7.5-7.5s-7.5 3.4-7.5 7.5c0 51.2 39.7 93.4 90 97.2v92.8c0 14.3 5.7 27.2 15 36.7v159.9l-24.9 8.3c-3.9 1.3-6.1 5.6-4.7 9.5 1 3.1 4 5.1 7.1 5.1.8 0 1.6-.1 2.4-.4l30-10c3.1-1 5.1-3.9 5.1-7.1V339.9c6.8 3.3 14.5 5.1 22.5 5.1s15.7-1.8 22.5-5.1v154.6c0 3.2 2.1 6.1 5.1 7.1l30 10c.8.3 1.6.4 2.4.4 3.1 0 6.1-2 7.1-5.1 1.3-3.9-.8-8.2-4.7-9.5l-24.9-8.3V329.2c9.3-9.5 15-22.4 15-36.7V200h67.5c12.4 0 22.5-10.1 22.5-22.5S380.9 155 368.5 155zm-145 25h50c6.9 0 12.5 5.6 12.5 12.5V285h-75v-92.5c0-6.9 5.6-12.5 12.5-12.5zm-11.7 120h73.5c-3.5 17.1-18.6 30-36.7 30s-33.4-12.9-36.8-30z"/><g><path d="M314.7 85.3h-20.9c-3.3-23.1-23.2-40.8-47.1-40.8-26.3 0-47.6 21.4-47.6 47.6v13.6c0 26.3 21.4 47.6 47.6 47.6s47.6-21.4 47.6-47.6v-6.8h20.4c3.8 0 6.8-3 6.8-6.8s-3-6.8-6.8-6.8zm-68.1-27.2c16.4 0 30.2 11.7 33.3 27.2h-66.7c3.3-15.5 17-27.2 33.4-27.2zm34.1 47.7c0 18.8-15.3 34-34 34s-34-15.3-34-34V99h68.1v6.8z"/></g></svg>
