<svg version="1.1" id="Capa_1" xmlns="http://www.w3.org/2000/svg" x="0" y="0" viewBox="0 0 494.5 445.1" xml:space="preserve"><style>.st0{fill:none;stroke:#000;stroke-width:14;stroke-linecap:round;stroke-linejoin:round}</style><path class="st0" d="M278.2 275.5L199.1 241M264.9 136l44.6 19.4c9.7 4.2 14.2 15.5 10 25.2l-41.3 94.8c-9.6 22-35.2 32.2-57.2 22.6h-.1c-22-9.6-32.1-35.2-22.5-57.3l41.3-94.9c4.2-9.6 15.5-14.1 25.2-9.8z"/><circle class="st0" cx="316" cy="76.2" r="44.3"/><path class="st0" d="M252.1 299.5l87.8 9.2-27.8 88.7 41.2 11.5M198 273.3l-23.7 90.8-85-28.9-18.4 42.1M255.6 158c-32.1-43.1-96.1-45.2-132.6-1.1M312 202.2c0 33.6 40.5 60.8 90.6 60.8M226.8 179l75.2 32M275.5 67.4l78.5-8.9M221.3 205.5l67.4 28.8"/></svg>
