<svg xmlns="http://www.w3.org/2000/svg" viewBox="0 0 512 512"><path d="M310.526 99.384a24.892 24.892 0 00-14.037-4.32H278.5V82.5c0-22.071-13.697-40.991-33.032-48.742A22.353 22.353 0 00248.5 22.5C248.5 10.094 238.406 0 226 0s-22.5 10.094-22.5 22.5c0 4.1 1.108 7.944 3.032 11.258C187.197 41.509 173.5 60.429 173.5 82.5v12.564h-17.989a24.877 24.877 0 00-14.036 4.321c-11.402 7.747-14.375 23.325-6.628 34.728a24.986 24.986 0 0020.692 10.951c5.019 0 9.872-1.495 14.036-4.324a24.83 24.83 0 009.226-11.562l1.992-5.03C189.94 139.606 206.775 150 226 150s36.06-10.394 45.207-25.851l1.975 4.986a24.864 24.864 0 009.244 11.605 24.878 24.878 0 0014.035 4.324 24.989 24.989 0 0020.692-10.951c7.748-11.402 4.774-26.981-6.627-34.729zm-145.688 24.315a9.942 9.942 0 01-3.693 4.635 9.94 9.94 0 01-5.605 1.73 10.007 10.007 0 01-8.286-4.381 9.93 9.93 0 01-1.552-7.495 9.934 9.934 0 014.203-6.396 9.932 9.932 0 015.605-1.728h14.728l-5.4 13.635zM226 15c4.136 0 7.5 3.364 7.5 7.5S230.136 30 226 30s-7.5-3.364-7.5-7.5 3.364-7.5 7.5-7.5zm0 30c18.11 0 33.261 12.904 36.745 30h-73.491C192.739 57.904 207.89 45 226 45zm37.5 52.5c0 20.678-16.822 37.5-37.5 37.5s-37.5-16.822-37.5-37.5V90h75v7.5zm41.246 28.184a10.007 10.007 0 01-8.286 4.381 9.94 9.94 0 01-5.604-1.73 9.977 9.977 0 01-3.712-4.679l-5.383-13.591h14.728v-.001c2.004 0 3.943.598 5.607 1.728 4.561 3.099 5.749 9.33 2.65 13.892zM466 467a7.499 7.499 0 00-7.5 7.5c0 12.406-10.094 22.5-22.5 22.5h-10c-4.143 0-7.5 3.357-7.5 7.5s3.357 7.5 7.5 7.5h10c20.678 0 37.5-16.822 37.5-37.5 0-4.143-3.357-7.5-7.5-7.5z"/><path d="M406 467a7.499 7.499 0 00-7.5 7.5c0 12.406-10.094 22.5-22.5 22.5h-82.5v-52.5c0-4.143-3.357-7.5-7.5-7.5h-22.5V329.192c8.264-8.445 13.703-19.656 14.787-32.101 9.01-4.521 15.213-13.843 15.213-24.591V260h45v177H331c-4.143 0-7.5 3.357-7.5 7.5s3.357 7.5 7.5 7.5h7.5v22.5c0 4.143 3.357 7.5 7.5 7.5s7.5-3.357 7.5-7.5V452h7.5c4.143 0 7.5-3.357 7.5-7.5s-3.357-7.5-7.5-7.5h-7.5V260h7.5c12.406 0 22.5-10.094 22.5-22.5S373.406 215 361 215h-7.5v-42.5c0-4.143-3.357-7.5-7.5-7.5s-7.5 3.357-7.5 7.5V245h-45v-52.5c0-15.163-12.337-27.5-27.5-27.5h-80c-12.563 0-23.178 8.472-26.452 20H113.5v-72.5c0-4.143-3.357-7.5-7.5-7.5s-7.5 3.357-7.5 7.5V155H91c-12.406 0-22.5 10.094-22.5 22.5S78.594 200 91 200h7.5v177H91c-4.143 0-7.5 3.357-7.5 7.5s3.357 7.5 7.5 7.5h7.5v22.5c0 4.143 3.357 7.5 7.5 7.5s7.5-3.357 7.5-7.5V392h7.5c4.143 0 7.5-3.357 7.5-7.5s-3.357-7.5-7.5-7.5h-7.5V200h45v72.5c0 10.749 6.203 20.071 15.213 24.591 1.084 12.445 6.523 23.656 14.787 32.101V497H46c-4.143 0-7.5 3.357-7.5 7.5s3.357 7.5 7.5 7.5h330c20.678 0 37.5-16.822 37.5-37.5 0-4.143-3.357-7.5-7.5-7.5zm-52.5-237h7.5c4.136 0 7.5 3.364 7.5 7.5s-3.364 7.5-7.5 7.5h-7.5v-15zm-255-45H91c-4.136 0-7.5-3.364-7.5-7.5s3.364-7.5 7.5-7.5h7.5v15zm135-5H266c6.893 0 12.5 5.607 12.5 12.5v80c0 6.893-5.607 12.5-12.5 12.5h-32.5V180zM186 285c-6.893 0-12.5-5.607-12.5-12.5v-80c0-6.893 5.607-12.5 12.5-12.5h32.5v105H186zm32.5 212h-15v-45h15v45zm30 0h-15v-52.5c0-4.143-3.357-7.5-7.5-7.5h-22.5v-97.076A52.175 52.175 0 00226 345a52.175 52.175 0 0022.5-5.076V497zM226 330c-18.11 0-33.261-12.904-36.745-30H218.5v7.5c0 4.143 3.357 7.5 7.5 7.5s7.5-3.357 7.5-7.5V300h29.245c-3.484 17.096-18.635 30-36.745 30zm52.5 167h-15v-45h15v45z"/></svg>
