<svg xmlns="http://www.w3.org/2000/svg" viewBox="0 0 400 1075"><defs/><path fill="currentColor" d="M348.658 55.469C343.976 82.405 335.786 92.21 332.344 75c-1.031-5.156-3.106-9.375-4.61-9.375-4.208 0-3.258 13.834 2.329 33.931l5.064 18.212-28.922 65.335c-31.343 70.806-42.309 91.856-47.908 91.971-1.985.04-6.703 7.114-10.484 15.719-8.16 18.571-23.831 27.805-36.166 21.311-11.294-5.947-11.455-8.825-1.71-30.51 11.487-25.562 15.506-59.934 7.991-68.344-2.672-2.991-5.338-8.893-5.924-13.116-2.595-18.687-41.305-21.659-59.171-4.542-4.716 4.519-9.864 7.419-11.439 6.446-6.669-4.122-13.238 19.149-10.09 35.745 1.668 8.799 2.246 17.274 1.282 18.833-.963 1.559 2.561 10.371 7.831 19.583 17.636 30.825 11.548 43.191-27.869 56.597-34.423 11.708-35.009 12.328-46.16 48.894-15.146 49.661-18.248 68.597-11.987 73.174 2.795 2.045 4.428 5.653 3.628 8.02-5.265 15.571-10.373 160.471-8.264 234.426.327 11.471 8.946 20.916 23.673 25.938 16.011 5.461 17.495 16.361 13.424 98.627-1.735 35.058-1.73 80.567.011 115.625l2.872 57.813-9.119 23.352c-10.524 26.949-9.041 35.652 6.663 39.101 34.814 7.647 43.321-15.673 45.58-124.953 2.416-116.846 9.783-169.67 31.27-224.219 9.681-24.575 28.972 36.022 32.868 103.241 1.522 26.275 3.65 49.2 4.728 50.943 1.933 3.128 7.463 103.707 8.612 156.635.701 32.318 4.485 38.257 24.372 38.257 21.638 0 26.443-13.692 15.952-45.462-4.799-14.531-5.219-22.143-3.007-54.395 1.415-20.626 3.125-100.046 3.801-176.491.676-76.445 2.38-139.373 3.788-139.84 1.408-.468 2.12-27.922 1.583-61.01-1.898-116.95 7.973-189.488 35.141-258.228 4.335-10.969 7.193-21.058 6.352-22.419-.841-1.362 7.52-20.823 18.58-43.247 11.31-22.929 21.619-48.675 23.557-58.831 8.272-43.337 16.17-74.257 20.127-78.793 4.2-4.814 17.627-40.031 17.433-45.725-.055-1.604-2.34-.104-5.078 3.334-4.853 6.092-4.928 6.052-2.951-1.563 5.445-20.973 5.941-25.949 2.366-23.739-1.987 1.228-3.613 4.176-3.613 6.552 0 2.375-1.323 5.136-2.94 6.135-1.744 1.078-2.213-2.661-1.154-9.19 2.012-12.394-.902-14.629-5.184-3.977l-2.826 7.032-.198-7.032c-.317-11.266-5.565-8.108-7.79 4.688M92.417 528.906c-.963 17.617-2.613 55.586-3.667 84.375-2.008 54.888-2.829 57.971-11.514 43.268-6.893-11.669-6.669-26.706.889-59.674 3.349-14.609 6.141-37.812 6.204-51.562.135-29.498 2.839-48.438 6.914-48.438 1.74 0 2.216 12.972 1.174 32.031"/></svg>
