<svg xmlns="http://www.w3.org/2000/svg" width="512" height="512" viewBox="0 0 34 61"><defs/><g fill="#000" fill-rule="nonzero"><path fill="currentColor" d="M30 61c2.209139 0 4-1.790861 4-4V11c0-2.209139-1.790861-4-4-4h-4.53C24.2110671 3.38242553 20.800373.95803989 16.97.95803989S9.72893289 3.38242553 8.47 7H4c-2.209139 0-4 1.790861-4 4v46c0 2.209139 1.790861 4 4 4zM13.92 37.4l7.73 2.81c.255675.094761.4615672.2898167.57.54.1113131.2550505.1113131.5449495 0 .8L20 46.62c-.3417455.7619295-.3504529 1.6318212-.0240276 2.4004389.3264253.7686176.958441 1.3663998 1.7440276 1.6495611l9 3.2c-.2290263.0905742-.4737602.1347623-.72.13H5.62zM32 52.22l-9.61-3.43c-.2671337-.0946307-.4815701-.2981635-.59-.56-.1084252-.2521726-.1084252-.5378274 0-.79l2.2-5.07c.3339394-.7651514.3339394-1.6348486 0-2.4-.325402-.7621461-.9515722-1.3557409-1.73-1.64l-7.45-2.73 1.83-3.67L32 37.69V52a1.79998935 1.79998935 0 010 .22zm0-24.66L19.93 23l2.23-5.66c1.2294644-.8547515 2.2262344-2.0027556 2.9-3.34H32zM30 9c1.1045695 0 2 .8954305 2 2v1h-6.23a8.89000286 8.89000286 0 00.23-2 8.3899824 8.3899824 0 00-.06-1zm-19.89-.25c.5682777-3.01796006 3.0223055-5.32240136 6.07-5.7A7.700002 7.700002 0 0117 3c3.1037834-.00084051 5.8375061 2.04226616 6.7157917 5.0191919C24.5940772 10.9961176 23.4071783 14.1959294 20.8 15.88c-.1758309.1121642-.3121924.2764973-.39.47L17 25l-3.41-8.64c-.0778076-.1935027-.2141691-.3578358-.39-.47-2.3795329-1.535776-3.59920808-4.3540546-3.09-7.14zM2 26.44l4.77 1.79L2 37.76zM2 14h7c.66119513 1.3447445 1.6476981 2.503112 2.87 3.37l1.22 3.08L2 16.31zm2-5h4.08c-.10959376 1.0025211-.05214755 2.0162776.17 3H2v-1c0-1.1045695.8954305-2 2-2zM2 42.24l6.56-13.12c.25100888-.5058976.27643524-1.0943363.07-1.62-.20537255-.5309574-.62728441-.9492321-1.16-1.15l-5.47-2v-5.91L14.05 23l1.08 2.76c.2982641.7700841 1.0391726 1.2776601 1.865 1.2776601s1.5667359-.507576 1.865-1.2776601l.33-.84L32 29.69v5.87l-14.65-5.5c-.9636447-.3555085-2.0399206.0767308-2.49 1L3.43 53.91C2.58417157 53.6585149 2.0031144 52.8824176 2 52zM2 57v-1.56c.60399287.3635516 1.29504012.5570448 2 .56h26c.7049599-.0029552 1.3960071-.1964484 2-.56V57c0 1.1045695-.8954305 2-2 2H4c-1.1045695 0-2-.8954305-2-2z"/><path fill="currentColor" d="M17 15c2.7614237 0 5-2.2385763 5-5 0-2.76142375-2.2385763-5-5-5s-5 2.23857625-5 5c0 2.7614237 2.2385763 5 5 5zm0-8c1.6568542 0 3 1.34314575 3 3 0 1.6568542-1.3431458 3-3 3s-3-1.3431458-3-3c0-1.65685425 1.3431458-3 3-3z"/></g></svg>
