<svg xmlns="http://www.w3.org/2000/svg" viewBox="0 0 60.152 60.152"><defs/><path fill="currentColor" d="M36.509 7.778c-.391-.391-1.023-.391-1.414 0s-.391 1.023 0 1.414l4.242 4.243c.195.195.451.293.707.293s.512-.098.707-.293c.391-.391.391-1.023 0-1.414l-4.242-4.243zM52.803 22.447c-.391-.391-1.023-.391-1.414 0l-1.793 1.793-1.793-1.793c-.391-.391-1.023-.391-1.414 0s-.391 1.023 0 1.414l1.793 1.793-1.793 1.793c-.391.391-.391 1.023 0 1.414.195.195.451.293.707.293s.512-.098.707-.293l1.793-1.793 1.793 1.793c.195.195.451.293.707.293s.512-.098.707-.293c.391-.391.391-1.023 0-1.414l-1.793-1.793 1.793-1.793c.391-.39.391-1.023 0-1.414z"/><path fill="currentColor" d="M57.722 17.678c-1.505-1.506-3.514-2.335-5.656-2.335-1.092 0-2.148.218-3.122.628L32.974 0l-.707.707c-3.899 3.899-3.899 10.243 0 14.142l8.485 8.485-3.273 3.273-2.395-5.055-4.194 2.692-2.352-5.145-4.207 2.701-2.352-5.145-4.208 2.701-2.352-5.145-4.208 2.701-1.793-3.924c-.182-.396-.583-.633-1.016-.629l-.742.072-2.613 7.009c-1.154 3.1.428 6.562 3.546 7.724 12.702 4.463 18.402 6.465 21.068 7.262l-3.971 3.971-7.575-2.333c-.367-.133-.771-.068-1.082.17-.313.243-.48.625-.443 1.025.094.996-.091 1.378-.216 1.448-.275.152-1.553.363-6.48-3.363l-.326-.246c-.322-.239-.714-.359-1.125-.354l-4.65.126c-1.178-.17-2.347.515-2.749 1.649l-.802 2.254c-.414 1.166.07 2.448 1.152 3.049l4.191 2.327 14.653 5.016c.183.808.49 1.576.91 2.286-.064.057-.136.109-.196.169-1.948 1.95-1.948 5.122 0 7.071.975.975 2.255 1.462 3.535 1.462 1.281 0 2.562-.487 3.536-1.462.93-.93 1.436-2.17 1.454-3.457 1.586-.288 3.044-1.041 4.203-2.2l24.041-24.042c1.506-1.505 2.335-3.514 2.335-5.657s-.828-4.152-2.334-5.657zm-50.8 2.461l1.602-4.297 1.826 3.999 4.208-2.701 2.352 5.145 4.208-2.701 2.352 5.145 4.208-2.701 2.352 5.145 4.222-2.709 1.728 3.645-4.728 4.727c-2.522-.763-14.171-4.81-21.977-7.552-2.068-.77-3.123-3.078-2.353-5.145zm26.759-6.704c-2.88-2.88-3.101-7.427-.663-10.563l14.098 14.099-.706.706-.001.001-4.242 4.242-8.486-8.485zM2.365 40.072c-.224-.124-.324-.389-.238-.63l.802-2.255c.086-.243.343-.387.594-.335l.111.023 4.796-.13.258.194c3.139 2.375 6.621 4.65 8.661 3.515.72-.402 1.135-1.124 1.239-2.152l5.503 1.695-1.723 1.723c-.178.178-.347.365-.506.558-1.097 1.323-1.722 2.953-1.809 4.687 0 .008-.002.017-.002.025L6.478 42.356l-4.113-2.284zm20.002 17.204c-1.169-1.17-1.169-3.073-.001-4.242 0 0 .001-.001.002-.001.176.176.361.343.552.5.122.102.251.193.378.286.066.048.129.1.196.145.171.118.348.225.528.329.024.014.046.029.07.042.201.113.406.216.616.311.003.001.005.003.008.004.864.391 1.796.626 2.765.69-.044.723-.347 1.411-.87 1.935-1.17 1.169-3.073 1.17-4.244.001zm33.941-29.699L32.267 51.619c-.981.981-2.249 1.578-3.621 1.717l-.297.016c-1.484.082-2.941-.389-4.081-1.299-.007-.005-.014-.01-.02-.015-.162-.131-.318-.27-.466-.418-.001-.001-.002-.003-.003-.004-.172-.172-.326-.354-.472-.541l-.012-.015c-.569-.729-.959-1.572-1.141-2.477l-.047-.318c-.207-1.402.088-2.821.798-4.003.011-.018.021-.035.032-.053.102-.166.214-.325.333-.48.024-.031.045-.063.07-.094.138-.174.285-.342.444-.501l18.385-18.385 5.658-5.658c1.128-1.127 2.634-1.748 4.242-1.748s3.114.621 4.242 1.749 1.749 2.634 1.749 4.243-.624 3.114-1.752 4.242z"/><path fill="currentColor" d="M41.585 36.643L29.439 48.79c-.744.745-2.082.746-2.828 0-.391-.391-1.023-.39-1.414 0-.391.391-.391 1.023 0 1.415.749.75 1.753 1.163 2.827 1.163s2.079-.413 2.829-1.164L43 38.057c.391-.391.391-1.023 0-1.414s-1.024-.391-1.415 0zM14.64 42.258l-4.368-1.735c-.512-.205-1.094.047-1.299.56-.203.513.047 1.095.561 1.298l4.368 1.735c.121.048.246.071.369.071.397 0 .773-.239.93-.631.203-.513-.047-1.094-.561-1.298z"/></svg>
