<svg xmlns="http://www.w3.org/2000/svg" viewBox="0 0 485.776 485.776"><defs/><path fill="currentColor" d="M402.888 21.776h-112c-4.418 0-8 3.582-8 8v176.72c-20.1 3.435-35.845 19.18-39.28 39.28h-8.72v-96c0-4.418-3.582-8-8-8h-112c-4.418 0-8 3.582-8 8v8c-31.4 0-56 17.6-56 40s24.6 40 56 40v8h-56c-4.418 0-8 3.582-8 8v192c.026 22.08 17.92 39.974 40 40h176c22.08-.026 39.974-17.92 40-40v-184h104c22.08-.026 39.974-17.92 40-40v-160c-.026-22.08-17.92-39.974-40-40zm-280 136h96v88h-96v-88zm-56 40c0-13.008 18.32-24 40-24v48c-21.68 0-40-10.992-40-24zm216 248c0 13.255-10.745 24-24 24h-176c-13.255 0-24-10.745-24-24v-184h224v184zm0-200h-22.864c2.927-11.195 11.669-19.937 22.864-22.864v22.864zm144-24c0 13.255-10.745 24-24 24h-104v-208h104c13.255 0 24 10.745 24 24v160z"/><circle cx="90.888" cy="197.776" r="16"/><circle cx="146.888" cy="181.776" r="16"/><circle cx="194.888" cy="181.776" r="16"/><circle cx="194.888" cy="221.776" r="16"/><circle cx="146.888" cy="221.776" r="16"/><path fill="currentColor" d="M133.16 132.072l23.328-17.496c8.548-6.355 20.252-6.355 28.8 0l23.32 17.496 4.712-28.168c3.92-23.008-1.525-46.629-15.12-65.6L170.888 0l-27.256 38.16c-13.623 18.96-19.097 42.581-15.2 65.6l4.728 28.312zm23.504-84.616l14.224-19.904 14.28 20.064c11.114 15.517 15.566 34.831 12.368 53.648l-.368 2.216-2.28-1.704c-14.243-10.603-33.757-10.603-48 0l-2.272 1.704-.392-2.336c-3.191-18.839 1.289-38.172 12.44-53.688z"/></svg>
