<svg xmlns="http://www.w3.org/2000/svg" viewBox="0 0 512 512"><defs/><path fill="currentColor" d="M256 34.1C133.7 34.1 34.1 133.7 34.1 256S133.7 477.9 256 477.9 477.9 378.3 477.9 256 378.3 34.1 256 34.1zm0 426.7c-112.9 0-204.8-91.9-204.8-204.8S143.1 51.2 256 51.2 460.8 143.1 460.8 256 368.9 460.8 256 460.8z"/><path fill="currentColor" d="M247.5 109.7l18.9 23.7c1.7 2.1 4.1 3.2 6.7 3.2.9 0 1.9-.2 2.8-.5 3.4-1.2 5.7-4.4 5.7-8.1V76.8h-17.1v26.9L245.6 80c-2.3-2.8-6.1-3.9-9.5-2.7-3.4 1.2-5.7 4.4-5.7 8.1v51.2h17.1v-26.9zM384 230.4v51.2c0 4.7 3.8 8.5 8.5 8.5h34.1V273H401v-8.5h25.6v-17.1H401v-8.5h25.6v-17.1h-34.1c-4.7.1-8.5 3.9-8.5 8.6zM277.1 380.4c-5.1-5-12.1-4.9-18.9-4.9h-4.4c-6.8-.1-13.8-.1-18.9 4.9-3 3-4.5 7.1-4.5 12.2 0 14.1 11.5 25.6 25.6 25.6 4.7 0 8.5 3.7 8.5 8.4-1.6.2-4.3.2-6.2.2h-4.6c-2.5 0-6.2.1-7.3-.4.2.1.4.2.5.4h-16.5c0 5.1 1.5 9.2 4.5 12.2 5.1 5 12 4.9 18.9 4.9h6.5c6.1 0 12.2-.4 16.8-4.9 3-3 4.5-7.1 4.5-12.2 0-14.1-11.5-25.6-25.6-25.6-4.7 0-8.5-3.7-8.5-8.4 1.6-.2 4.3-.2 6.2-.2h4.6c2.5 0 6.2 0 7.3.4-.2-.1-.4-.2-.5-.4h16.5c0-5.1-1.5-9.2-4.5-12.2zM349.9 264.5v-17.1h-43.2l75.7-106c2.4-3.4 2-8-.9-11-2.9-2.9-7.6-3.3-11-.9l-7.2 5.2c-2.1-1.9-4.1-3.9-6.3-5.7l-10.6 13.3c1 .8 1.8 1.7 2.8 2.5l-84.5 60.4V162h-17.1v52.1c-16.7 3.4-29.9 16.6-33.3 33.3h-52.1v17.1h43.2l-61.7 86.3c-1.4-1.6-2.9-3-4.2-4.7l-13.4 10.6c2.3 2.9 4.9 5.5 7.4 8.3l-3.9 5.4c-2.4 3.4-2 8 .9 11 1.6 1.7 3.8 2.5 6 2.5 1.7 0 3.5-.5 5-1.6l106-75.7v43.2h17.1v-52.1c16.7-3.4 29.9-16.6 33.3-33.3h52zm-56.2-28.1c-4-7.7-10.3-14-18-18l63.1-45.1-45.1 63.1zm-75.4 39.2c4 7.7 10.3 14 18 18l-63.1 45.1 45.1-63.1zm37.7 6c-14.1 0-25.6-11.5-25.6-25.6 0-14.1 11.5-25.6 25.6-25.6s25.6 11.5 25.6 25.6c0 14.1-11.5 25.6-25.6 25.6zM120.1 284.8c1.3 3.2 4.4 5.4 7.9 5.4h.2c3.6-.1 6.7-2.4 7.8-5.8l17.1-51.2-16.2-5.4-9.7 29.1-8.4-21c-1.3-3.2-4.4-5.4-7.9-5.4s-6.6 2.1-7.9 5.4l-8.4 21-9.7-29.1-16.2 5.4 17.1 51.2c1.1 3.4 4.3 5.7 7.8 5.8 3.6.2 6.8-2 8.2-5.4l9.1-22.9 9.2 22.9z"/></svg>
