<svg xmlns="http://www.w3.org/2000/svg" width="512" height="512" viewBox="0 0 64 64"><defs/><path fill="currentColor" d="M60.707 35.293C59.228 33.814 57.262 33 55.171 33H51.07l-2.665-.38c-2.692-.385-5.225-1.311-7.528-2.75-2.705-1.69-4.971-4.047-6.553-6.816l-3.742-6.548C29.347 14.343 27.033 13 24.543 13c-1.18 0-2.348.303-3.378.875l-7.134 3.963c-.616.343-1.452.084-1.767-.546l-.831-1.662C10.93 14.625 9.919 14 8.794 14c-1.522 0-2.814 1.188-2.94 2.706l-.841 10.091-1.962 5.886c-.034.103-.051.21-.051.317v3.697l-.152.229C1.639 38.738 1 40.849 1 43.027v2.214c0 .65.154 1.303.445 1.885.551 1.102 1.552 1.904 2.746 2.202l2.566.642c.08.02.161.03.243.03h13c.155 0 .309-.036.447-.105L22 49.118l1.553.776c.096.048.199.08.306.096l14 2c.046.007.094.01.141.01h8.248c3.236 0 6.468-.397 9.604-1.183 2.445-.611 4.505-2.138 5.803-4.299.88-1.466 1.345-3.145 1.345-4.855v-.835c0-2.092-.814-4.057-2.293-5.535zm-1.135 1.721l-.298.298c-.822.822-1.274 1.914-1.274 3.075 0 1.079-.731 2.016-1.778 2.277C52.675 43.551 49.023 44 45.367 44c-.164 0-.328-.009-.492-.01l2.699-4.048 6.964-.773c1.403-.156 2.462-1.34 2.462-2.752 0-.415-.099-.831-.28-1.204.963.264 1.848.769 2.573 1.494.098.098.188.203.279.307zM11.95 35.535l-3.071-3.07c-.857-.857-1.974-1.342-3.17-1.429l.777-2.33 3.39 2.825c.68.567 1.475.971 2.317 1.208l.092.277C12.88 34.801 14.543 36 16.424 36c.704 0 1.366.31 1.816.851l3.012 3.615c-1.442.354-2.922.534-4.414.534H14v-.515c0-1.869-.728-3.627-2.05-4.95zM5 33.162L5.054 33h.289c.801 0 1.555.312 2.121.879l3.071 3.07C11.48 37.895 12 39.15 12 40.485v.188L7.332 39.34C7.136 39.284 7 39.104 7 38.9c0-.938-.521-1.779-1.358-2.197L5 36.382zm16.273-4.859l-5.672 2.363c-.406.169-.834.264-1.266.302l.279-.977c.759-2.657 2.745-4.857 5.312-5.884l4.063-1.625c-.032 1.453-.515 2.887-1.388 4.051zm2.314 11.839l-3.81-4.573C18.945 34.572 17.723 34 16.424 34c-.8 0-1.523-.404-1.954-1.044.649-.051 1.292-.19 1.9-.443l10.465-4.36c.08-.033.171-.03.25.009.113.056.148.154.159.207s.018.156-.063.253l-3.479 4.176c-.601.72-.554 1.765.109 2.428.625.627 1.603.708 2.324.193l5.763-4.116c.12-.085.276-.098.407-.032.128.064.179.171.199.229s.042.174-.021.302l-2.111 4.221c-.351.703-.214 1.548.341 2.104.688.688 1.89.688 2.577 0l3.701-3.701c.125-.124.313-.155.471-.076.181.09.269.302.205.493l-1.272 3.815c-.352 1.055.133 2.225 1.126 2.72.319.16.66.236.998.236.768 0 1.518-.394 1.935-1.089l2.034-3.39c.126-.215.512-.109.512.142 0 1.329.686 2.529 1.803 3.216l-2.291 3.437c-5.794-.262-11.51-1.317-17.031-3.156zm8.739-16.557l.263.46c.255.446.53.878.816 1.304l-2.137.504c-.03-.03-.038-.076-.019-.114zm3.071 4.385l.023-.07c.267.291.543.573.826.849-.17.072-.364.074-.532-.009-.279-.14-.416-.471-.317-.77zm-6.55-10.473l2.274 3.98-1.662 3.367c-.404.809-.246 1.783.394 2.422.397.397.938.614 1.489.614.168 0 .338-.021.504-.062l1.637-.409c-.367 1.218.195 2.547 1.338 3.118.37.185.774.277 1.179.277s.81-.092 1.179-.277l.692-.346c.623.495 1.271.96 1.947 1.383 2.541 1.588 5.335 2.609 8.306 3.034l2.736.391c.045.008.093.011.14.011h3.382l.537 1.074c.053.106.081.225.081.343 0 .393-.294.721-.683.764l-7.427.825c-.293.033-.558.193-.722.439l-.253.38c-.563-.317-.915-.898-.915-1.548C45 36.021 43.979 35 42.723 35c-.795 0-1.543.424-1.953 1.105l-2.034 3.39c-.065.11-.207.152-.323.094-.109-.055-.162-.183-.124-.299l1.272-3.815c.377-1.129-.142-2.382-1.207-2.915-.928-.464-2.046-.284-2.78.451l-2.925 2.925 1.62-3.24c.286-.572.332-1.222.13-1.829-.203-.607-.629-1.099-1.201-1.385-.797-.399-1.74-.325-2.464.192l-4.519 3.228 2.5-3.001c.453-.543.629-1.251.484-1.943s-.59-1.27-1.222-1.586c-.599-.299-1.296-.324-1.914-.065l-1.287.536c.792-1.366 1.224-2.93 1.224-4.51v-.213c0-.837-.116-1.668-.346-2.473l-1.324-4.634c.071-.002.142-.013.213-.013 1.774 0 3.423.957 4.304 2.497zM8.794 16c.362 0 .688.201.85.525l.831 1.662C11.034 19.305 12.159 20 13.409 20c.557 0 1.107-.143 1.593-.413l7.134-3.963c.082-.045.169-.079.253-.12l1.341 4.694c.02.07.028.143.045.214l-4.594 1.838c-3.137 1.255-5.563 3.943-6.491 7.191l-.354 1.238c-.425-.166-.827-.389-1.182-.685l-4.116-3.43.808-9.693c.042-.488.458-.871.948-.871zM61 41.663c0 1.348-.366 2.671-1.06 3.826-1.022 1.703-2.646 2.906-4.573 3.389-2.978.744-6.046 1.122-9.119 1.122h-8.177l-13.769-1.967-1.855-.928c-.281-.141-.613-.141-.895 0L19.764 48H7.123l-2.447-.611c-.627-.157-1.153-.579-1.442-1.157-.153-.306-.234-.649-.234-.991v-2.214c0-1.68.48-3.304 1.362-4.728l.386.193c.153.077.252.237.252.408 0 1.092.733 2.063 1.782 2.363l5.943 1.698c.09.026.183.039.275.039h3.838c2.093 0 4.163-.318 6.158-.947l1.853.617C31.479 44.88 38.382 46 45.367 46c3.819 0 7.634-.47 11.339-1.396C58.646 44.12 60 42.386 60 40.387c0-.597.227-1.156.63-1.591.239.642.37 1.327.37 2.032z"/><path fill="currentColor" d="M26 17h2v2h-2zM27 22h2v2h-2z"/></svg>
