<svg xmlns="http://www.w3.org/2000/svg" viewBox="0 0 512 512"><defs/><path d="M445.753 194.55L317.458 66.25c-3.904-3.905-10.236-3.905-14.142 0l-64.149 64.149c-.139.139-.264.288-.394.434-.066.074-.135.144-.199.219-.248.295-.478.603-.689.922-.036.055-.066.114-.101.169-.172.273-.331.553-.475.841-.051.102-.099.206-.147.31-.125.271-.236.546-.336.827-.022.064-.054.122-.076.187l-23.308 69.93L7.843 409.835c-10.458 10.46-10.458 27.479.001 37.936l56.387 56.387c5.054 5.054 11.791 7.838 18.97 7.838 7.178 0 13.915-2.783 18.968-7.836L221.72 384.609l17.788-17.788.003-.003 68.255-68.255 69.931-23.309c.053-.018.102-.044.155-.063.299-.105.593-.225.882-.358.082-.038.165-.074.246-.114.341-.17.677-.355 1.001-.566.006-.004.014-.007.02-.012.323-.211.635-.447.937-.7.089-.075.171-.156.258-.233.137-.122.277-.237.408-.369l64.149-64.148c1.875-1.875 2.929-4.419 2.929-7.071-.001-2.651-1.054-5.195-2.929-7.07zM183.337 394.712c-2.377 2.376-5.561 3.685-8.966 3.685-3.405 0-6.589-1.309-8.967-3.687-2.378-2.377-3.687-5.561-3.687-8.966 0-3.405 1.31-6.589 3.688-8.967l20.687-20.686c1.593 3.924 3.978 7.6 7.156 10.778 3.128 3.128 6.788 5.538 10.777 7.155l-20.688 20.688zm41.984-41.984c-2.378 2.377-5.562 3.686-8.966 3.686-3.405 0-6.589-1.309-8.966-3.686-4.943-4.943-4.944-12.984.042-17.976l.003-.005c2.08-2.08 4.778-3.343 7.702-3.626.417-.04.839-.061 1.265-.061.426 0 .848.021 1.265.061 2.923.283 5.621 1.545 7.701 3.626 2.377 2.378 3.687 5.562 3.687 8.967 0 3.405-1.309 6.589-3.733 9.014zm21.344-21.345c-1.618-3.99-4.027-7.65-7.155-10.778-6.155-6.155-14.362-9.545-23.109-9.545-1.988 0-3.946.184-5.861.527-6.508 1.166-12.492 4.262-17.247 9.018l-42.029 42.029c-6.156 6.155-9.546 14.362-9.546 23.11 0 8.747 3.391 16.955 9.546 23.108 3.128 3.128 6.788 5.538 10.777 7.155L88.028 490.02c-1.276 1.276-2.991 1.979-4.827 1.979-1.837 0-3.552-.703-4.828-1.98L21.987 433.63c-2.662-2.662-2.662-6.992-.001-9.654L222.184 223.78l66.041 66.042-41.56 41.561zm58.403-53.001l-71.444-71.444 16.984-50.956 105.416 105.415-50.956 16.985zm69.469-26.757L260.38 137.469l50.007-50.006L424.543 201.62l-50.006 50.005zM457.726 54.279c-3.905-3.905-10.237-3.905-14.142 0l-35.635 35.636c-3.905 3.905-3.905 10.237 0 14.142 1.953 1.953 4.512 2.929 7.071 2.929s5.119-.977 7.071-2.929l35.635-35.636c3.905-3.905 3.905-10.237 0-14.142zM364.318.348c-5.336-1.431-10.818 1.736-12.247 7.071L339.027 56.1c-1.429 5.335 1.737 10.818 7.072 12.247.867.233 1.737.343 2.594.343 4.415 0 8.456-2.947 9.653-7.415l13.043-48.68c1.429-5.334-1.737-10.818-7.071-12.247zM511.657 147.688c-1.43-5.335-6.911-8.502-12.248-7.071l-48.68 13.044c-5.335 1.429-8.5 6.913-7.071 12.248 1.197 4.468 5.237 7.414 9.653 7.414.856 0 1.728-.111 2.595-.343l48.68-13.044c5.335-1.429 8.5-6.913 7.071-12.248z"/><path d="M345.851 150.25l-29.016-29.017c-3.906-3.905-10.237-3.905-14.142 0-3.905 3.905-3.905 10.237 0 14.142l29.016 29.016c1.953 1.953 4.512 2.929 7.071 2.929s5.118-.976 7.071-2.929c3.905-3.904 3.905-10.236 0-14.141zM366.321 170.723l-.167-.167c-3.911-3.899-10.243-3.89-14.142.021-3.899 3.911-3.89 10.242.021 14.142l.166.167c1.952 1.946 4.506 2.918 7.061 2.918 2.564 0 5.128-.98 7.082-2.939 3.899-3.912 3.89-10.242-.021-14.142z"/></svg>
