<svg xmlns="http://www.w3.org/2000/svg" viewBox="0 0 480.176 480.176"><defs/><path fill="currentColor" d="M240.192 112.076c-13.255 0-24 10.745-24 24s10.745 24 24 24 24-10.745 24-24-10.745-24-24-24zm0 32c-4.418 0-8-3.582-8-8s3.582-8 8-8 8 3.582 8 8-3.582 8-8 8z"/><path fill="currentColor" d="M467.392 140.532c-1.008-2.396-3.117-4.154-5.656-4.712-2.547-.563-5.208.161-7.12 1.936-11.983 11.12-30.712 10.419-41.831-1.564-4.421-4.765-7.151-10.853-7.768-17.324-.422-4.398-4.33-7.621-8.728-7.199-.936.09-1.848.344-2.696.751-14.577 7.399-32.393 1.58-39.792-12.998-6.909-13.613-2.333-30.247 10.568-38.41 3.682-2.443 4.686-7.408 2.243-11.089-1.043-1.572-2.608-2.725-4.419-3.255-84.958-24.849-174.296 22.258-201.784 106.4C81.396 144.014 10.004 200.725.95 279.737c-9.055 79.012 47.657 150.404 126.669 159.458 59.531 6.822 117.064-23.933 144.461-77.223 87.239 24.353 177.703-26.626 202.056-113.865 9.937-35.594 7.56-73.501-6.744-107.575zm-323.2 283.544c-70.692 0-128-57.308-128-128s57.308-128 128-128 128 57.308 128 128c-.084 70.658-57.342 127.916-128 128zm219.793-79.945c-15.387 5.254-31.534 7.938-47.793 7.945-12.67-.024-25.285-1.672-37.536-4.904 28.405-73.952-8.519-156.929-82.471-185.334-6.452-2.478-13.075-4.487-19.817-6.01 23.93-69.55 95.342-110.935 167.584-97.12-14.929 20.315-10.564 48.886 9.751 63.815 7.841 5.762 17.318 8.868 27.049 8.865 3.502.003 6.992-.402 10.4-1.208 7.8 23.946 33.535 37.034 57.481 29.234 2.644-.861 5.203-1.963 7.647-3.29 26.43 77.403-14.892 161.577-92.295 188.007z"/><path fill="currentColor" d="M386.12 239.108c-19.277-.018-34.918 15.595-34.936 34.872-.018 19.277 15.595 34.918 34.872 34.936 19.277.018 34.918-15.595 34.936-34.872v-.04c-.022-19.254-15.618-34.861-34.872-34.896zm18.872 34.896c-.026 10.412-8.46 18.846-18.872 18.872v.032c-10.44.018-18.918-8.432-18.936-18.872-.018-10.44 8.432-18.918 18.872-18.936 10.44-.018 18.918 8.432 18.936 18.872v.032zM353.304 171.46c-10.719-10.993-28.319-11.215-39.312-.496-.167.163-.333.329-.496.496l-17.648 17.648c-10.854 10.856-10.852 28.455.004 39.308 10.856 10.853 28.455 10.852 39.308-.004l17.648-17.64c10.993-10.719 11.215-28.319.496-39.312zm-11.455 27.647c-.115.12-.233.238-.353.353v-.008l-17.648 17.656c-4.67 4.456-12.018 4.456-16.688 0-4.591-4.615-4.591-12.073 0-16.688l17.648-17.64c4.509-4.706 11.978-4.865 16.684-.357 4.705 4.509 4.865 11.979.357 16.684zM95.848 292.42l-16-16c-10.858-10.856-28.46-10.854-39.316.004-10.856 10.858-10.854 28.46.004 39.316l16 16c10.858 10.856 28.46 10.854 39.316-.004 10.856-10.858 10.854-28.46-.004-39.316zm-11.271 27.951l-.041.041v.008c-4.61 4.604-12.078 4.604-16.688 0l-16-16c-4.509-4.706-4.349-12.175.356-16.684 4.566-4.375 11.768-4.373 16.332.004l16 16c4.604 4.581 4.622 12.027.041 16.631zM120.192 360.076c-13.255 0-24 10.745-24 24s10.745 24 24 24 24-10.745 24-24-10.745-24-24-24zm0 32c-4.418 0-8-3.582-8-8s3.582-8 8-8 8 3.582 8 8-3.582 8-8 8zM200.192 216.076c-13.255 0-24 10.745-24 24s10.745 24 24 24 24-10.745 24-24-10.745-24-24-24zm0 32c-4.418 0-8-3.582-8-8s3.582-8 8-8 8 3.582 8 8-3.582 8-8 8zM437.848 210.42l-16-16c-3.178-3.07-8.242-2.982-11.312.196-2.994 3.1-2.994 8.015 0 11.116l16 16c3.178 3.069 8.242 2.982 11.312-.196 2.994-3.101 2.994-8.016 0-11.116zM325.652 306.42c-3.1-2.995-8.016-2.995-11.116 0l-16 16c-3.178 3.07-3.266 8.134-.196 11.312 3.07 3.178 8.134 3.266 11.312.196.066-.064.132-.13.196-.196l16-16c3.07-3.178 2.982-8.242-.196-11.312zM157.652 274.42c-3.1-2.994-8.015-2.994-11.116 0l-16 16c-3.178 3.069-3.266 8.134-.196 11.312 3.069 3.178 8.134 3.266 11.312.196.067-.064.132-.13.196-.196l16-16c3.069-3.178 2.981-8.242-.196-11.312zM253.848 298.42l-16-16c-3.178-3.07-8.242-2.982-11.312.196-2.994 3.1-2.994 8.015 0 11.116l16 16c3.178 3.07 8.242 2.982 11.312-.196 2.995-3.1 2.995-8.016 0-11.116zM318.848 123.636l-16-24c-2.452-3.676-7.42-4.668-11.096-2.216s-4.668 7.42-2.216 11.096l16 24c2.452 3.676 7.42 4.668 11.096 2.216s4.668-7.42 2.216-11.096zM221.848 362.42l-40-40c-3.125-3.124-8.19-3.123-11.314.002-1.499 1.5-2.342 3.534-2.342 5.654v40c0 4.418 3.582 8 8 8h40c4.418-.001 7.999-3.583 7.998-8.002 0-2.12-.843-4.154-2.342-5.654zm-37.656-2.344v-12.688l12.688 12.688h-12.688zM133.846 202.418c-1.5-1.499-3.534-2.342-5.654-2.342h-40c-4.418 0-8 3.582-8 8v40c-.001 3.235 1.947 6.153 4.936 7.392 2.99 1.239 6.432.553 8.72-1.736l40-40c3.124-3.125 3.123-8.19-.002-11.314zm-37.654 26.346v-12.688h12.688l-12.688 12.688z"/></svg>
