<svg xmlns="http://www.w3.org/2000/svg" viewBox="0 0 512 512"><defs/><path fill="currentColor" d="M401.943 391.987c-5.517 0-9.995 4.478-9.995 9.995s4.478 9.995 9.995 9.995c5.517 0 9.995-4.478 9.995-9.995s-4.477-9.995-9.995-9.995zM110.088 391.987c-5.517 0-9.995 4.478-9.995 9.995s4.478 9.995 9.995 9.995 9.995-4.478 9.995-9.995-4.478-9.995-9.995-9.995zM390.261 428.629c-4.577-3.089-10.789-1.88-13.875 2.696-9.235 13.69-18.541 20.633-27.656 20.633-5.52 0-9.995 4.476-9.995 9.995 0 5.519 4.475 9.995 9.995 9.995 16.168 0 31.049-9.906 44.228-29.442 3.086-4.578 1.88-10.789-2.697-13.877z"/><path fill="currentColor" d="M487.716 55.994c-20.483-32.01-52.673-49.226-69.787-52.452-44.557-8.401-79.875-.709-104.977 22.866-50.122 47.066-46.102 144.066-34.942 211.654 2.416 14.631 3.896 28.124 1.502 67.966-1.457 24.264-4.339 52.274-8.593 83.454-.859 4.832-10.099 61.058 17.606 95.868 13.154 16.525 32.162 25.44 56.498 26.498 72.565 3.159 107.513-85.213 122.625-155.788 6.159-28.748 11.857-52.08 17.418-71.328 8.724-30.124 54.375-147.898 2.65-228.738zm-39.613 295.88c-5.586 26.082-15.906 63.396-33.353 93.035-19.034 32.334-42.208 48.112-68.85 46.968h-.004c-18.534-.806-32.171-6.998-41.691-18.93-22.689-28.439-13.673-79.58-13.581-80.081.029-.155.054-.311.075-.466 4.844-35.465 7.946-66.979 9.232-93.719 11.691-39.023 35.624-73.327 48.935-90.388 21.096-27.042 38.191-40.487 43.274-42.13 3.936.977 16.831 10.001 33.137 32.578 17.369 24.05 31.414 53.612 39.721 83.481-5.418 19.101-10.954 41.927-16.895 69.652zm27.001-102.432c-9.005-23.1-20.926-45.139-34.779-63.989-8.694-11.83-30.81-39.344-48.378-39.344-17.811 0-48.023 36.254-56.859 47.367-9.261 11.648-23.172 30.75-35.461 54.095-1.023-10.905-2.046-9.928-4.989-32.174 23.193-35.611 57.885-75.73 81.24-85.691 3.683-1.571 6.073-5.188 6.073-9.193V96.134c0-5.511 4.484-9.995 9.995-9.995 5.511 0 9.995 4.484 9.995 9.995v24.378c0 4.005 2.39 7.622 6.074 9.193 29.299 12.497 57.767 53.474 75.322 88.899-2.275 9.914-5.024 20.231-8.233 30.838zm-53.17-135.227V96.133c0-16.534-13.451-29.985-29.985-29.985s-29.985 13.451-29.985 29.985v18.163c-22.379 12.323-48.804 40.91-70.338 70.321-2.979-46.879.583-111.31 35.01-143.637 23.279-21.858 55.905-23.738 87.409-17.828 2.046.487 34.506 8.721 56.834 43.616 19.264 30.107 25.38 70.636 18.286 120.732-14.688-24.873-38.399-58.069-67.231-73.285zM241.081 389.48c-4.264-31.173-7.15-59.181-8.606-83.447-.842-14.036-2.201-49.413.617-62.97 10.193-48.542 20.858-165.147-34.078-216.685C170.926.028 130.984-4.254 93.798 3.596c-1.707.37-42.111 9.545-69.482 52.248C-1.283 95.785-6.698 150.573 8.205 218.689c.077.621.214 1.231.405 1.826 15.057 67.545 17.882 43.874 33.773 125.948C56.236 417.95 90.178 511.93 163.27 511.93c23.778 0 45.473-8.084 60.191-26.574 27.716-34.817 18.474-91.067 17.62-95.876zM49.114 55.735c21.239-25.534 47.23-32.193 48.839-32.584 37.826-7.095 67.226-1.103 87.383 17.805 18.119 16.999 29.524 44.604 33.898 82.05 2.482 21.245 2.322 42.729 1.157 61.268-21.253-28.762-47.986-57.632-70.324-69.972V96.133c0-16.534-13.451-29.985-29.985-29.985S90.096 79.6 90.096 96.133v18.081c-28.825 15.203-52.521 48.368-67.209 73.246-7.834-56.284 1.066-101.474 26.227-131.725zM36.916 249.452c-3.202-10.597-5.951-20.896-8.23-30.829 17.511-35.384 45.993-76.413 75.326-88.917 3.685-1.57 6.076-5.189 6.076-9.194V96.133c0-5.511 4.484-9.995 9.995-9.995s9.995 4.484 9.995 9.995v24.378c0 4.005 2.391 7.623 6.074 9.193 23.244 9.913 58.644 50.682 81.26 85.254-1.917 14.571-3.858 23.879-3.865 23.909-.137.625-.671 3.286-1.173 8.614-12.292-23.328-26.202-42.413-35.463-54.05-8.834-11.101-39.04-47.323-56.828-47.323-17.514 0-39.569 27.378-48.239 39.149-13.913 18.888-25.889 41.01-34.928 64.195zm170.867 223.499c-10.948 13.719-27.125 18.985-44.414 18.985-65.304-.008-92.6-104.057-101.363-149.277-3.615-18.68-8.509-42.267-14.665-61.559 8.365-29.561 22.335-58.772 39.542-82.544 16.247-22.446 29.087-31.419 33.007-32.394 5.08 1.647 22.164 15.084 43.252 42.094 13.295 17.031 37.199 51.257 48.907 90.216 1.276 26.79 4.387 58.376 9.254 93.93.02.146.045.304.072.449.095.514 9.101 51.661-13.592 80.1z"/><path fill="currentColor" d="M163.261 451.958c-11.4 0-21.562-11.772-28.08-21.647-3.041-4.608-9.239-5.878-13.847-2.838-4.607 3.042-5.877 9.24-2.837 13.847 13.411 20.323 28.472 30.628 44.764 30.628 5.52 0 9.995-4.476 9.995-9.995 0-5.52-4.474-9.995-9.995-9.995z"/></svg>
