<svg xmlns="http://www.w3.org/2000/svg" viewBox="0 0 511.999 511.999"><defs/><path fill="currentColor" d="M500.555 238.158c-42.7-27.971-72.305-69.817-100.935-110.285C369.816 85.748 338.998 42.188 293 12.66c-1.507-.967-6.037-3.848-6.037-3.848l-8.05 12.664c.002.001 4.487 2.852 5.98 3.81 8.55 5.488 16.568 11.538 24.166 18.017-19.15 7.469-36.733 17.85-53.331 31.498-16.459-12.928-33.757-23.147-52.458-30.99 12.42-9.574 26.712-18.388 43.66-26.217 3.009-1.391 6.279-2.249 9.718-2.553 4.127-.364 7.178-4.005 6.814-8.133-.364-4.128-4.011-7.184-8.134-6.814-5.166.456-10.107 1.761-14.691 3.877-22.582 10.429-40.827 22.637-56.214 35.942-.574.379-1.098.837-1.553 1.368-18.901 16.643-33.456 34.945-46.459 53.606-.02.029-.04.057-.059.086-6.254 8.98-12.158 18.04-18.016 27.038l-1.043 1.604c-6.037 9.316-12.127 18.705-18.584 27.979-.195.243-.372.503-.538.774-12.732 18.216-26.943 35.953-45.064 51.765-.262.199-.51.419-.746.655-11.23 9.707-23.953 18.677-38.757 26.563C5.494 235.67.417 243.435.024 252.122c-.388 8.574 3.88 16.641 11.419 21.578 42.796 28.033 72.487 69.928 101.201 110.443 7.102 10.021 14.259 20.117 21.659 30.085.027.04.058.076.086.115 14.722 19.822 30.421 39.131 48.603 56.333.307.343.641.656 1.002.934 13.856 12.985 29.148 24.748 46.553 34.576 6.651 3.756 14.395 5.748 22.164 5.748 1.311 0 2.626-.057 3.933-.171 5.169-.454 10.119-1.759 14.713-3.88 22.588-10.432 40.839-22.644 56.228-35.952.537-.357 1.021-.792 1.455-1.281 28.072-24.693 46.551-53.047 64.618-80.803l1.045-1.606c6.038-9.317 12.129-18.708 18.587-27.984.191-.239.366-.495.53-.762 12.732-18.215 26.942-35.953 45.062-51.765.28-.212.546-.446.797-.7 11.22-9.692 23.93-18.65 38.714-26.525 8.11-4.319 13.186-12.085 13.579-20.771.39-8.572-3.879-16.638-11.417-21.576zm-51.554-23.598c-18.92 7.258-36.18 17.295-52.342 30.427-13.449-14.806-25.492-30.593-36.59-45.883 16.379-13.289 33.453-22.667 51.9-28.495 11.466 15.266 23.582 30.165 37.032 43.951zm-171.684 20.922c4.384 6.187 8.89 12.543 13.425 18.829-6.64 9.169-13.169 18.567-19.513 27.697-5.248 7.554-10.626 15.294-16.054 22.886-6.979-9.445-13.83-19.111-20.506-28.53-4.381-6.183-8.883-12.534-13.416-18.818 6.637-9.164 13.164-18.559 19.504-27.686 5.25-7.557 10.63-15.302 16.062-22.897 6.976 9.441 13.826 19.105 20.498 28.519zm-11.25-41.195c14.307-19.156 26.774-33.518 39.338-45.282 9.209 12.109 18.139 24.7 26.814 36.941 2.553 3.602 5.118 7.193 7.68 10.788-12.868 11.871-25.514 26.15-39.774 44.919-3.561-4.969-7.102-9.959-10.565-14.845-7.608-10.733-15.453-21.766-23.493-32.521zm-37.633 27.012c-5.39 7.758-10.916 15.708-16.505 23.513-10.64-14.293-22.993-29.9-37.212-44.693 6.299-8.854 12.445-17.858 18.412-26.623 5.074-7.451 10.28-15.095 15.541-22.574 12.56 11.85 25.068 25.925 38.69 43.516-6.425 8.89-12.768 17.997-18.926 26.861zm-25.775 36.206c-14.344 19.181-26.83 33.567-39.38 45.339-11.076-15.223-23.098-30.947-36.596-45.832 12.848-11.943 25.268-26.113 39.069-44.561 14.132 14.951 26.407 30.789 36.907 45.054zm9.211 12.702c3.559 4.966 7.097 9.952 10.557 14.834 7.609 10.736 15.457 21.774 23.5 32.532-14.31 19.159-26.777 33.52-39.339 45.283-9.207-12.108-18.136-24.697-26.811-36.938-2.554-3.603-5.119-7.195-7.682-10.791 12.863-11.866 25.509-26.145 39.775-44.92zm43.514 59.753c13.628 17.336 26.289 31.343 39.108 43.267-10.044 13.632-22.878 29.709-38.48 44.145-13.325-11.611-26.294-25.382-40.159-42.639 12.796-11.846 25.363-26.079 39.531-44.773zm9.251-12.54c6.42-8.886 12.761-17.988 18.917-26.849 5.393-7.761 10.922-15.714 16.514-23.525 10.639 14.293 22.991 29.899 37.212 44.693-6.289 8.842-12.428 17.835-18.387 26.588-5.083 7.464-10.297 15.119-15.566 22.61-12.562-11.851-25.071-25.925-38.69-43.517zm44.7-63.066c14.34-19.177 26.823-33.562 39.38-45.339 11.077 15.224 23.102 30.95 36.596 45.832-12.85 11.946-25.27 26.114-39.068 44.56-14.133-14.95-26.407-30.788-36.908-45.053zm78.035-117.813c5.029 7.106 10.089 14.256 15.245 21.373-18.172 6.368-35.097 15.913-51.327 28.973-2.28-3.201-4.554-6.409-6.826-9.616-8.942-12.618-18.149-25.608-27.724-38.16 16.472-13.346 33.583-22.739 52.007-28.574 6.331 8.631 12.501 17.349 18.625 26.004zm-65.806-81.848c13.727 13.322 26.073 28 37.711 43.19-18.289 6.441-35.361 16.148-51.784 29.426-13.741-17.065-26.707-30.906-40.021-42.698 16.733-13.368 34.532-23.213 54.094-29.918zm-65.582 39.795c13.324 11.611 26.295 25.382 40.158 42.639-12.798 11.847-25.366 26.083-39.531 44.773-13.63-17.341-26.29-31.345-39.108-43.267 10.045-13.629 22.874-29.703 38.481-44.145zm-65.78-39.734c19.423 7.321 37.213 17.247 54.066 30.158-15.397 14.501-28.06 30.254-38.079 43.782-16.389-13.615-33.551-24.442-52.083-32.833 10.518-14.49 22.036-28.34 36.096-41.107zm-60.327 77.036l1.035-1.591c4.791-7.358 9.538-14.645 14.414-21.814 18.587 8.117 35.721 18.802 52.064 32.493-5.664 8.018-11.239 16.206-16.664 24.177-5.467 8.031-11.078 16.273-16.797 24.364-15.435-14.536-31.391-26.333-48.42-35.802 4.996-7.367 9.74-14.685 14.368-21.827zm-23.006 34.211c16.955 9.266 32.813 21.012 48.182 35.692-13.818 18.627-26.08 32.713-38.699 44.428-14.862-14.983-30.088-27.288-46.189-37.317 14.271-13.561 26.146-28.146 36.706-42.803zm-55.815 119.68c-9.688-8.866-20.081-17.121-31.391-24.529-3.104-2.035-4.8-5.078-4.651-8.351.153-3.386 2.211-6.376 5.645-8.206 14.222-7.575 26.675-16.149 37.777-25.365 16.254 9.654 31.579 21.737 46.556 36.732-16.515 13.254-34.259 23.027-53.936 29.719zm11.968 11.61c18.911-7.26 36.162-17.293 52.314-30.417 13.452 14.81 25.494 30.595 36.59 45.881-16.353 13.269-33.399 22.638-51.814 28.468-11.485-15.259-23.622-30.151-37.09-43.932zm61.862 78.177c-5.082-7.169-10.194-14.38-15.405-21.557 18.133-6.368 35.027-15.902 51.227-28.939 2.281 3.203 4.555 6.412 6.829 9.621 8.942 12.616 18.149 25.607 27.722 38.158-16.424 13.31-33.495 22.688-51.877 28.531-6.192-8.454-12.312-17.088-18.496-25.814zm27.947 38.467c18.253-6.444 35.29-16.136 51.672-29.385 13.741 17.065 26.706 30.905 40.021 42.697-16.725 13.361-34.514 23.204-54.065 29.908-13.63-13.243-25.879-27.838-37.628-43.22zm112.236 80.329c-3.019 1.394-6.293 2.253-9.734 2.555-6.065.532-12.249-.78-17.408-3.693-12.781-7.217-24.316-15.489-34.97-24.575 19.143-7.469 36.72-17.847 53.312-31.491 16.459 12.928 33.757 23.146 52.459 30.99-12.42 9.572-26.712 18.387-43.659 26.214zm56.727-37.159c-19.423-7.322-37.214-17.247-54.066-30.158 15.392-14.495 28.057-30.25 38.079-43.782 16.387 13.614 33.549 24.441 52.083 32.833-10.519 14.489-22.037 28.341-36.096 41.107zm60.327-77.035l-1.037 1.594c-4.79 7.357-9.537 14.643-14.412 21.811-18.589-8.119-35.723-18.803-52.065-32.493 5.673-8.028 11.256-16.23 16.689-24.21 5.46-8.02 11.064-16.25 16.774-24.33 15.432 14.533 31.389 26.331 48.42 35.801-4.997 7.367-9.742 14.684-14.369 21.827zm23.005-34.211c-16.959-9.269-32.817-21.015-48.183-35.693 13.815-18.625 26.078-32.71 38.699-44.428 14.862 14.982 30.087 27.287 46.19 37.318-14.272 13.562-26.146 28.147-36.706 42.803zm86.214-78.594c-14.222 7.576-26.676 16.15-37.777 25.366-16.256-9.655-31.581-21.738-46.556-36.732 16.523-13.258 34.271-23.033 53.952-29.725 9.681 8.871 20.068 17.129 31.376 24.535 3.104 2.034 4.799 5.077 4.651 8.349-.156 3.386-2.212 6.377-5.646 8.207z"/></svg>
