<svg xmlns="http://www.w3.org/2000/svg" viewBox="0 0 512.003 512.003"><defs/><path fill="currentColor" d="M378.958 217.879c-3.91-3.91-10.24-3.91-14.15 0-3.9 3.9-3.9 10.23 0 14.14 3.91 3.91 10.24 3.91 14.15 0 3.901-3.91 3.901-10.24 0-14.14z"/><path fill="currentColor" d="M503.161 65.389L446.589 8.818c-11.724-11.722-30.697-11.726-42.423 0l-18.14 18.14c-7.438 7.438-10.285 17.911-8.041 27.863l-82.012 14.471c-18.29 3.237-34.885 11.882-47.985 24.994l-17.532 17.522c-11.546 11.546-16.251 27.381-14.121 42.424-15.155-2.14-30.858 2.565-42.438 14.144-11.563 11.556-16.291 27.246-14.152 42.433-15.149-2.131-30.848 2.568-42.419 14.139-11.234 11.234-16.351 26.789-14.141 42.449-15.045-2.132-30.881 2.573-42.429 14.12l-40.291 40.281c-27.287 27.289-27.288 71.701.001 99.003l70.712 70.711c27.297 27.284 71.706 27.291 99.002-.002l40.279-40.29c11.548-11.548 16.253-27.387 14.119-42.433 15.591 2.199 31.173-2.859 42.45-14.136 11.544-11.544 16.248-27.379 14.117-42.425 15.508 2.19 31.114-2.794 42.454-14.145 11.545-11.545 16.249-27.378 14.119-42.42 15.655 2.21 31.214-2.903 42.454-14.143l17.515-17.524c13.118-13.106 21.762-29.702 24.999-47.997l14.47-82.005c9.933 2.239 20.41-.587 27.864-8.041l18.14-18.14c11.725-11.724 11.727-30.697.001-42.422zM216.316 437.078l-40.279 40.289c-19.492 19.493-51.218 19.492-70.718 0L34.61 406.66c-19.493-19.502-19.493-51.227-.002-70.719l40.291-40.281c11.697-11.698 30.73-11.698 42.428 0l98.99 98.989c11.698 11.698 11.698 30.731-.001 42.429zm56.569-56.57c-11.692 11.692-30.686 11.741-42.427 0l-98.99-98.99c-11.721-11.722-11.724-30.703.001-42.428 11.713-11.714 30.681-11.718 42.419-.007l.008.008 98.986 98.985.001.001v.001c11.695 11.703 11.697 30.736.002 42.43zm56.568-56.566c-11.711 11.725-30.707 11.727-42.424-.004l-98.993-98.992c-11.728-11.72-11.734-30.698.003-42.426 11.729-11.729 30.687-11.731 42.418 0l99 99c11.696 11.694 11.696 30.723-.004 42.422zm93.538-111.424c-2.518 14.229-9.24 27.137-19.446 37.333l-17.518 17.527c-11.697 11.698-30.73 11.698-42.428 0l-99-99c-11.697-11.698-11.697-30.73-.002-42.426l17.535-17.525c10.19-10.2 23.099-16.922 37.322-19.44l90.254-15.925 49.207 49.208-15.924 90.248zm66.027-118.849l-18.14 18.14c-3.908 3.907-10.229 3.908-14.138 0l-56.57-56.571c-3.907-3.909-3.908-10.229.001-14.138l18.14-18.14c3.909-3.908 10.23-3.907 14.138 0l56.569 56.571c3.901 3.902 3.915 10.221 0 14.138zM505.415 378.782l-44.56-87.299c-1.709-3.347-5.149-5.454-8.907-5.454s-7.198 2.107-8.907 5.454l-44.557 87.295c-20.252 39.621 8.607 87.251 53.464 87.251 44.849 0 73.718-47.622 53.467-87.247zm-53.467 67.247c-29.934 0-49.128-31.79-35.652-58.154l35.652-69.85 35.655 69.854c13.459 26.335-5.692 58.15-35.655 58.15z"/><path fill="currentColor" d="M350.671 189.588l-48.28-48.28c-3.906-3.905-10.236-3.905-14.143 0-3.905 3.905-3.905 10.237 0 14.142l48.28 48.28c3.906 3.905 10.236 3.905 14.143 0 3.905-3.906 3.905-10.237 0-14.142z"/></svg>
