<svg xmlns="http://www.w3.org/2000/svg" preserveAspectRatio="xMinYMin meet" viewBox="0 0 593.97 771.29"><defs/><defs><pattern id="a" width="72" height="72" x="-32.85" y="-26.15" data-name="10 lpp 10%" patternUnits="userSpaceOnUse"><path fill="none" stroke="#211915" stroke-width=".72" d="M71.75 68.4h72.5M71.75 54h72.5M71.75 39.6h72.5M71.75 25.2h72.5M71.75 10.8h72.5M71.75 61.2h72.5M71.75 46.8h72.5M71.75 32.4h72.5M71.75 18h72.5M71.75 3.6h72.5M-.25 68.4h72.5M-.25 54h72.5M-.25 39.6h72.5M-.25 25.2h72.5M-.25 10.8h72.5M-.25 61.2h72.5M-.25 46.8h72.5M-.25 32.4h72.5M-.25 18h72.5M-.25 3.6h72.5M-72.25 68.4H.25M-72.25 54H.25M-72.25 39.6H.25M-72.25 25.2H.25M-72.25 10.8H.25M-72.25 61.2H.25M-72.25 46.8H.25M-72.25 32.4H.25M-72.25 18H.25M-72.25 3.6H.25"/></pattern></defs><g fill="none" stroke="#211915" stroke-linecap="round" stroke-linejoin="round" stroke-width=".5"><path d="M188.94 300.69v.5"/><path stroke-dasharray="1.0015277862548828,2.0030555725097656" d="M188.93 303.19l-1.15 251.39"/><path d="M187.78 555.58v.5"/></g><g fill="none" stroke="#211915" stroke-linecap="round" stroke-linejoin="round" stroke-width=".5" data-name="line_over"><path d="M260.57 341.83v.5"/><path stroke-dasharray=".993172287940979,1.986344575881958" d="M260.57 344.32v210.55"/><path d="M260.57 555.86v.5"/></g><g fill="none" stroke="#211915" stroke-linecap="round" stroke-linejoin="round" stroke-width=".5" data-name="line_over"><path d="M225.39 320.77v.5"/><path stroke-dasharray=".9944908022880554,1.9889816045761108" d="M225.39 323.26v252.6"/><path d="M225.39 576.85v.5"/></g><g fill="none" stroke="#211915" stroke-linecap="round" stroke-linejoin="round" stroke-width=".5" opacity=".15"><path d="M188.93 214.01v.5"/><path stroke-dasharray="1.0137803554534912,2.0275607109069824" d="M188.93 216.54v81.1"/><path d="M188.93 298.66v.5"/></g><g fill="none" stroke="#211915" stroke-linecap="round" stroke-linejoin="round" stroke-width=".5" data-name="line_under" opacity=".15"><path d="M225.39 193.83v.5"/><path stroke-dasharray="1.0075265169143677,2.0150530338287354" d="M225.39 196.34v122.92"/><path d="M225.39 320.27v.5"/></g><g fill="none" stroke="#211915" stroke-linecap="round" stroke-linejoin="round" stroke-width=".5" data-name="line_under" opacity=".15"><path d="M260.41 214.84v.5"/><path stroke-dasharray=".9995729327201843,1.9991458654403687" d="M260.41 217.34v121.94"/><path d="M260.41 340.28v.5"/></g><g data-name="icon"><rect width="6.41" height="6.89" x="292.81" y="469.27" fill="none" stroke="#211915" stroke-miterlimit="10" stroke-width="1.5" rx="1.4"/><path fill="#070308" d="M296.02 467.76a2.52 2.52 0 10-2.55-2.52 2.53 2.53 0 002.55 2.52zm0-3.36a.84.84 0 11-.85.84.85.85 0 01.85-.84z"/><path fill="none" stroke="#070308" stroke-linecap="round" stroke-miterlimit="10" stroke-width="1.5" d="M290.9 471.24l-1.4 8.38"/><path fill="none" stroke="#070308" stroke-linecap="round" stroke-miterlimit="10" stroke-width="1.5" d="M301.14 471.24l1.4 8.38" data-name="wheel"/><rect width="24.07" height="32.32" x="283.98" y="452.22" fill="none" stroke="#211915" stroke-miterlimit="10" stroke-width="1.5" rx="2.74"/><path fill="none" stroke="#211915" stroke-linecap="round" stroke-linejoin="round" d="M294.87 458.72l-1.85-1.85-1.85 1.85M297.17 456.87l1.85 1.85 1.85-1.85"/></g><path fill="none" stroke="#211915" stroke-linecap="round" stroke-miterlimit="10" d="M277.75 459.33l-40.05-22.85"/><g><path fill="none" stroke="#211915" stroke-linejoin="round" stroke-width="3" d="M490 603.41l100.3 57.71a4.08 4.08 0 010 7.08l-173.4 100a12 12 0 01-12 0l-321-185.58a4.61 4.61 0 010-8l137.25-79.08a8.7 8.7 0 018.73 0l212.12 123a12.38 12.38 0 0012.39 0l26.25-15.17a9.35 9.35 0 019.36.04z"/><path fill="url(#a)" d="M593.17 663.95L484.8 600.93l-37.66 20.37-110.48-63.77-71.67 41.86 88 53.8-72.24 43.08 130.65 74.51 181.77-106.83z"/><path fill="none" stroke="#211915" stroke-miterlimit="10" stroke-width="3" d="M151.37 535.85l70.78 41a6.71 6.71 0 006.69 0l30.81-17.73a2 2 0 000-3.43l-30.71-17.84a6.74 6.74 0 00-6.73 0l-33.74 19.46" data-name="elevator"/><path fill="none" stroke="#211915" stroke-linecap="round" stroke-miterlimit="10" stroke-width="3" d="M324.68 670.93l-43.93 25.34"/><path fill="none" stroke="#211915" stroke-linecap="round" stroke-miterlimit="10" stroke-width="3" d="M336.65 557.53l-69.69 40.15a2.9 2.9 0 000 5l83.89 48.51a2.69 2.69 0 010 4.66l-7.81 4.5M299.45 664.44l18.38 10.51M253.3 637.62l31.21 18.2M187.68 642.41l34.65-19.24a6.2 6.2 0 016.09 0l9.64 5.55M233.98 669.06l36.56-21.01" data-name="wall"/><path fill="none" stroke="#211915" stroke-linejoin="round" stroke-width="3" d="M336.82 642.88l73.93-42.57" data-name="wall"/><g fill="none" stroke="#211915" stroke-linecap="round" stroke-linejoin="round"><path d="M287.01 541.96l-25.79 14.89"/><path d="M279.78 537.79l-25.79 14.89M272.55 533.62l-25.78 14.89M265.33 529.45l-25.79 14.89M258.1 525.28l-25.79 14.89M250.87 521.11L225.08 536" data-name="stair"/></g><path fill="none" stroke="#211915" stroke-linecap="round" stroke-linejoin="round" stroke-width="2" d="M288.44 554.61l-7.38-.12v4.26"/><g fill="#070308" data-name="icon"><path d="M217.59 707.22a7.88 7.88 0 00-1.3-2.61l.51-1.67a2.42 2.42 0 00-.35-2.13 2.38 2.38 0 00-1.86-1h-2.39a2.4 2.4 0 00-1.86 1 2.45 2.45 0 00-.35 2.13l.52 1.67c-1.87 2.35-1.82 6-1.81 6.15a.84.84 0 00.85.82h1.27v3.07a.85.85 0 001.7 0v-3.91a.85.85 0 00-.85-.84h-1.24a7.79 7.79 0 011.64-4.51.85.85 0 00.2-.83l-.65-2.11a.74.74 0 01.11-.66.68.68 0 01.53-.3h2.27a.72.72 0 01.54.3.77.77 0 01.11.66l-.65 2.11a.84.84 0 00.19.83 5.57 5.57 0 011.24 2.31 10.23 10.23 0 01.4 2.2h-1.21a.85.85 0 00-.84.84v3.91a.85.85 0 001.69 0v-3.07h1.28a.84.84 0 00.85-.82 12.8 12.8 0 00-.54-3.54zM213.37 699a2.52 2.52 0 10-2.55-2.52 2.53 2.53 0 002.55 2.52zm0-3.36a.84.84 0 11-.85.84.85.85 0 01.85-.84zM204.03 699.85h-3.4a2.55 2.55 0 00-2.55 2.53v4.58a2.52 2.52 0 001.7 2.38v5.36a.85.85 0 001.7 0v-6a.85.85 0 00-.85-.85.84.84 0 01-.85-.84v-4.58a.84.84 0 01.85-.84h3.4a.84.84 0 01.85.84v4.58a.84.84 0 01-.85.84.85.85 0 00-.85.85v6a.85.85 0 001.7 0v-5.36a2.52 2.52 0 001.69-2.38v-4.58a2.54 2.54 0 00-2.54-2.53zM202.33 699a2.52 2.52 0 10-2.55-2.52 2.54 2.54 0 002.55 2.52zm0-3.36a.84.84 0 11-.85.84.85.85 0 01.85-.84z"/></g><path fill="none" stroke="#211915" stroke-linecap="round" stroke-miterlimit="10" d="M264.17 677.55l-41.57 23.92" data-name="line"/><g><g data-name="icon"><g fill="#070308"><path d="M170.69 681.63a7.61 7.61 0 00-1.31-2.61l.52-1.68a2.43 2.43 0 00-2.21-3.13h-2.39a2.43 2.43 0 00-2.21 3.13l.51 1.68c-1.87 2.35-1.81 6-1.81 6.14a.85.85 0 00.85.83h1.28v3.07a.85.85 0 001.69 0v-3.91a.84.84 0 00-.85-.84h-1.24a7.93 7.93 0 011.65-4.52.82.82 0 00.19-.82l-.65-2.12a.74.74 0 01.65-1h2.27a.71.71 0 01.53.3.75.75 0 01.11.66l-.65 2.12a.83.83 0 00.2.82 5.68 5.68 0 011.24 2.32 10.77 10.77 0 01.4 2.2h-1.24a.84.84 0 00-.85.84v3.91a.85.85 0 001.7 0v-3.07h1.27a.85.85 0 00.85-.83 12.92 12.92 0 00-.5-3.49z" data-name="body_female"/><path d="M166.46 673.41a2.53 2.53 0 10-2.54-2.52 2.54 2.54 0 002.54 2.52zm0-3.36a.84.84 0 11-.85.84.84.84 0 01.85-.84z" data-name="head_female"/><path d="M157.15 674.21h-3.39a2.54 2.54 0 00-2.55 2.52v4.59a2.53 2.53 0 001.7 2.38v5.36a.85.85 0 001.7 0V683a.85.85 0 00-.85-.84.85.85 0 01-.85-.84v-4.59a.85.85 0 01.85-.84h3.39a.85.85 0 01.85.84v4.59a.85.85 0 01-.85.84.85.85 0 00-.84.84v6.06a.85.85 0 001.69 0v-5.36a2.53 2.53 0 001.7-2.38v-4.59a2.54 2.54 0 00-2.55-2.52z" data-name="body_male"/><path d="M155.43 673.41a2.53 2.53 0 10-2.55-2.52 2.53 2.53 0 002.55 2.52zm0-3.36a.84.84 0 11-.85.84.85.85 0 01.85-.84z" data-name="head_male"/></g><g data-name="disabled"><rect width="6.41" height="6.89" x="139.51" y="678.8" fill="none" stroke="#211915" stroke-miterlimit="10" stroke-width="1.5" data-name="body" rx="1.4"/><path fill="#070308" d="M142.71 677.29a2.53 2.53 0 10-2.55-2.52 2.54 2.54 0 002.55 2.52zm0-3.37a.85.85 0 11-.85.85.85.85 0 01.85-.85z" data-name="head"/><path fill="none" stroke="#070308" stroke-linecap="round" stroke-miterlimit="10" stroke-width="1.5" d="M137.59 680.76l-1.4 8.39M147.83 680.76l1.4 8.39" data-name="wheel"/></g></g><path fill="none" stroke="#211915" stroke-linecap="round" stroke-miterlimit="10" d="M218.03 651.5l-41.57 23.91" data-name="line"/></g></g><g><path fill="none" stroke="#211915" stroke-linecap="round" stroke-miterlimit="10" stroke-width="3" d="M179.15 391.37l-23 13.31c-2.7 1.55-2.71 4.1 0 5.66l27.36 15.82 9.81 5.68 27.28 15.77a10.89 10.89 0 009.82 0l64.43-37.13c2.7-1.56 2.71-4.11 0-5.67l-64.5-37.26a10.86 10.86 0 00-9.82 0l-15.23 8.78" data-name="wall"/><path fill="none" stroke="#211915" stroke-miterlimit="10" stroke-width="3" d="M188.35 429l32.19-18.71a10.78 10.78 0 019.8 0l32.31 18.88"/><g fill="none" stroke="#211915" stroke-linecap="round" stroke-linejoin="round" data-name="stairs"><path d="M290.84 402.92l-35.38 20.65M283.63 398.57l-35.59 20.58M277 394.18l-37.09 21.35M268.81 390.61l-35.62 20.44M261.6 386.37l-37.59 21.61"/></g><g fill="none" stroke="#211915" stroke-linecap="round" stroke-linejoin="round" stroke-width="3"><path d="M198.69 380.21v6.34h-11.2"/><path d="M183.03 377.51l15.66 9.04" data-name="line"/></g><path fill="none" stroke="#211915" stroke-linecap="round" stroke-linejoin="round" stroke-width="2" d="M241.68 384.06l.03 4.19-7.32-.03"/><path fill="none" stroke="#211915" stroke-linecap="round" stroke-linejoin="round" stroke-width="2" d="M235.58 392.7l-7.39-.12v4.26" data-name="arrow_up"/></g><g fill="none" stroke="#211915"><path stroke-linejoin="round" stroke-width="3" d="M488.98 260.57l101.29 58.28a4.09 4.09 0 010 7.09L415.69 426.61a9.65 9.65 0 01-9.64 0l-115.19-66.52a3.54 3.54 0 010-6.12l37.44-21.89a2.4 2.4 0 00-.05-4.16l-17-9.46a5.22 5.22 0 00-5.16 0l-39.94 23.1a7.28 7.28 0 01-7.29 0L82.98 239.85a4 4 0 010-6.93l138.38-79.74a8.29 8.29 0 018.29 0L443.8 277.36a8.71 8.71 0 008.76 0l29.06-16.79a7.36 7.36 0 017.36 0z" data-name="perimeter"/><path stroke-linecap="round" stroke-miterlimit="10" stroke-width="3" d="M188.37 300.67l47.01-27.15M256.92 260.98l79.82-45.88" data-name="wall"/><path stroke-miterlimit="10" stroke-width="3" d="M350.83 295.02l9.56 5.54a2.28 2.28 0 010 4l-8.95 5.19a6.19 6.19 0 01-6.19 0l-9.42-5.48a2 2 0 010-3.43l10-5.76a5 5 0 015-.06z"/><path stroke-linecap="round" stroke-miterlimit="10" stroke-width="3" d="M447.15 364.56l-58.48-33.86a1.8 1.8 0 00-1.81 0l-1.48.88a1.07 1.07 0 000 1.85l58.17 33.59a1.27 1.27 0 001.28 0l2.31-1.34a.66.66 0 00.01-1.12z"/><path stroke-miterlimit="10" stroke-width="3" d="M151.33 193.52l71.18 41.18a6 6 0 006 0l30.14-17.35a2.67 2.67 0 000-4.62l-31.18-18a3.79 3.79 0 00-3.8 0l-35.2 20.29" data-name="elevator"/><path stroke-linecap="round" stroke-linejoin="round" stroke-width="2" d="M225.83 299.83l.03 4.19-7.32-.03" data-name="arrow_up"/><g stroke-linecap="round" stroke-linejoin="round"><path d="M281.33 323.68l-25.79 14.89M274.1 319.51l-25.79 14.89M266.87 315.34l-25.79 14.89M259.65 311.17l-25.79 14.89M252.42 307l-25.79 14.89M245.19 302.83l-25.79 14.89" data-name="stair"/></g><path stroke-linecap="round" stroke-linejoin="round" stroke-width="2" d="M301.09 207.6l-7.39-.12v4.26" data-name="arrow_down"/><g stroke-linecap="round" stroke-linejoin="round"><path d="M299.01 193.38l-25.79 14.89M291.78 189.21l-25.79 14.89M284.55 185.04l-25.79 14.89M277.32 180.87l-25.79 14.89M270.1 176.7l-25.79 14.89M262.87 172.53l-25.79 14.89" data-name="stair"/></g></g><g><path fill="none" stroke="#211915" stroke-linejoin="round" stroke-width="3" d="M489.42 45.52l101 58.12a4 4 0 010 7l-177 102.19a7.69 7.69 0 01-5.14-.09L195 89.18a4.37 4.37 0 010-7.56L331.84 2.85a9.71 9.71 0 019.71 0l104.87 60.72a5 5 0 003.66 0l31.23-18a8.1 8.1 0 018.11-.05z" data-name="perimeter"/><path fill="url(#a)" d="M522.44 72l101 58.13a4 4 0 010 6.95l-177 102.19a7.6 7.6 0 01-5.13-.09L314.18 165c-1.31-.76 70.08-39.45 68.75-44.32S295.26 68.9 295.26 68.9l69.6-39.66a9.71 9.71 0 019.71 0L479.44 90a5 5 0 003.66 0l31.24-18a8.09 8.09 0 018.1 0z" data-name="private" transform="translate(-32.85 -26.15)"/><path fill="none" stroke="#211915" stroke-linecap="round" stroke-miterlimit="10" stroke-width="3" d="M296.62 95.71l-63.06-36.13"/><path fill="none" stroke="#211915" stroke-linecap="round" stroke-miterlimit="10" stroke-width="3" d="M281.33 138.85l67.36-41a3.23 3.23 0 00-.07-5.56l-86.21-49.55" data-name="wall"/><g fill="none" stroke="#211915" stroke-linecap="round" stroke-linejoin="round" data-name="stairs"><path d="M301.65 98.72l22.99 13.42M295.44 102.44l23 13.42M289.24 106.17l23 13.41M283.04 109.89l22.99 13.41M276.83 113.61l23 13.42" data-name="stair"/></g><path fill="none" stroke="#211915" stroke-linecap="round" stroke-linejoin="round" stroke-width="2" d="M317.08 93.21v4.08h7.17"/></g><g fill="#211915" stroke="#211915" stroke-miterlimit="10" font-family="Abel-Regular,Abel" font-size="25" letter-spacing=".05em"><text font-family="Futura" transform="translate(.5 415.44)">P0</text><text font-family="Futura" transform="translate(.5 584.38)">P-1</text><text font-family="Futura" transform="translate(.5 248.49)">P1</text><text font-family="Futura" transform="translate(.5 85.55)">P2</text></g></svg>
