<svg xmlns="http://www.w3.org/2000/svg" viewBox="0 0 300 300.02">
	<title>Casa de la Muntanya</title>
	<g id="isologo">
		<path id="stroke" d="M5,5H295V295H5V5M0,0V300H300V0Z" fill="currentColor"/>
		<g id="mountains" fill="none" stroke="currentColor" stroke-linecap="square" stroke-miterlimit="3" stroke-width="5px">
			<path d="M244.72,222.25l17.08-16.73,34.17,91"/>
			<path d="M186.35,181.86,272.54,296,212,145.87,184.3,178.78l-6.14,13.37"/>
			<line x1="179.19" y1="294.99" x2="200.69" y2="230.2"/>
			<line x1="91.12" y1="295.01" x2="112.62" y2="232.25"/>
			<line x1="83.95" y1="248.71" x2="81.9" y2="160.27"/>
			<path d="M4.27,294.76,82.11,152l16.18,41.07"/>
			<path d="M32.75,296.5l79.87-68.36,31.19,63.12,2.61,5.24"/>
			<path d="M143.81,287.79l56.88-59.65L248.82,295"/>
			<path d="M88.05,246.65,112.62,132.5h39.94l41,101.81"/>
			<line x1="183.28" y1="244.6" x2="113.65" y2="133.53"/>
		</g>
		<g id="name" fill="currentColor">
			<path d="M30.18,105l.52-30h5.66l4.26,20.75L45.06,75h5.47l.56,30H47l-.45-20.84L42.32,105H39L34.7,84.08,34.29,105Z"/>
			<path
				d="M76,105.39a9.3,9.3,0,0,1-5.18-1.22,6.23,6.23,0,0,1-2.55-3.48,18.2,18.2,0,0,1-.7-5.4V75h5.32v20.9A18.45,18.45,0,0,0,73,98.57a3.65,3.65,0,0,0,.87,2,3.2,3.2,0,0,0,4.14,0,4,4,0,0,0,.85-2,15.9,15.9,0,0,0,.21-2.65V75h5.29V95.29a18.53,18.53,0,0,1-.7,5.4,6.26,6.26,0,0,1-2.54,3.48A9.28,9.28,0,0,1,76,105.39Z"/>
			<path d="M100.89,105V75h3.81L112,92.11V75h4.51v30h-3.62l-7.33-17.91V105Z"/>
			<path d="M136.26,105V79.05h-4.77V75h14.95v4h-4.7V105Z"/>
			<path d="M159.13,105l6-30H171l6,30h-5.07l-1.18-6.92h-5.22L164.27,105Zm6.92-10.4h4.07l-2-12.58Z"/>
			<path d="M192,105V75h3.81l7.29,17.09V75h4.51v30H204l-7.33-17.91V105Z"/>
			<path d="M228.58,105V93.55L222.51,75h5.1l3.7,11.87L234.79,75h5l-6,18.53V105Z"/>
			<path d="M252,105l6-30h5.85l6,30h-5.06l-1.19-6.92h-5.22L257.1,105Zm6.92-10.4H263l-2-12.58Z"/>
			<path
				d="M38.82,60.39a9,9,0,0,1-5.16-1.29,6.83,6.83,0,0,1-2.61-3.54,16.51,16.51,0,0,1-.74-5.16V39.71a17.24,17.24,0,0,1,.74-5.33,6.49,6.49,0,0,1,2.61-3.48,9.42,9.42,0,0,1,5.16-1.22,9.39,9.39,0,0,1,4.87,1.06,5.81,5.81,0,0,1,2.5,3,13,13,0,0,1,.74,4.55v2.52H41.67V38.23a18.08,18.08,0,0,0-.13-2.3,2.81,2.81,0,0,0-.7-1.64,2.62,2.62,0,0,0-2-.61,2.76,2.76,0,0,0-2,.65A3.11,3.11,0,0,0,36,36.06a15.25,15.25,0,0,0-.18,2.46v13a11.12,11.12,0,0,0,.26,2.68A2.76,2.76,0,0,0,37,55.82a3,3,0,0,0,1.87.54,2.49,2.49,0,0,0,1.94-.65A3.11,3.11,0,0,0,41.52,54a17.43,17.43,0,0,0,.15-2.4V48.88h5.26v2.41A14.5,14.5,0,0,1,46.22,56a6.16,6.16,0,0,1-2.46,3.22A9,9,0,0,1,38.82,60.39Z"/>
			<path d="M57.69,60l6-30h5.84l6,30H70.46l-1.19-6.91H64.06L62.84,60Zm6.92-10.39h4.07L66.65,37Z"/>
			<path
				d="M94.4,60.39a8.92,8.92,0,0,1-4.52-1,6.73,6.73,0,0,1-2.74-3.09,13.34,13.34,0,0,1-1-5l4.7-.92a14.88,14.88,0,0,0,.42,3.07,4.39,4.39,0,0,0,1.08,2.05,2.56,2.56,0,0,0,1.9.72,2.14,2.14,0,0,0,1.89-.79,3.44,3.44,0,0,0,.55-2,5.47,5.47,0,0,0-.88-3.22,14,14,0,0,0-2.37-2.51L89.62,44.3a11.38,11.38,0,0,1-2.53-3.06,8.39,8.39,0,0,1-.94-4.16,7.09,7.09,0,0,1,2.07-5.47,8,8,0,0,1,5.66-1.93,8.4,8.4,0,0,1,3.51.65,5.56,5.56,0,0,1,2.24,1.79,8.07,8.07,0,0,1,1.24,2.61,15.34,15.34,0,0,1,.52,3.09l-4.66.82a16,16,0,0,0-.32-2.52,3.48,3.48,0,0,0-.85-1.74,2.38,2.38,0,0,0-1.79-.63,2.27,2.27,0,0,0-1.87.8,3,3,0,0,0-.65,2A4.51,4.51,0,0,0,91.88,39a9.59,9.59,0,0,0,1.81,2l3.74,3.29A15.59,15.59,0,0,1,100.59,48,9.27,9.27,0,0,1,101.91,53a7.59,7.59,0,0,1-1,3.81,6.78,6.78,0,0,1-2.62,2.61A8,8,0,0,1,94.4,60.39Z"/>
			<path d="M111.93,60l6-30h5.84l6,30H124.7l-1.19-6.91H118.3L117.08,60Zm6.92-10.39h4.07l-2-12.58Z"/>
			<path
				d="M158.55,60V30h7.07a13.43,13.43,0,0,1,5.72,1,5.83,5.83,0,0,1,2.92,3.07,13.73,13.73,0,0,1,.87,5.26V50.29a14.61,14.61,0,0,1-.87,5.42,6,6,0,0,1-2.89,3.22,12.06,12.06,0,0,1-5.53,1ZM164,56.17h1.66a4.36,4.36,0,0,0,2.71-.66,2.94,2.94,0,0,0,1-1.95,21.17,21.17,0,0,0,.19-3.12V39a13.43,13.43,0,0,0-.26-2.92,2.49,2.49,0,0,0-1.07-1.63,5,5,0,0,0-2.63-.52H164Z"/>
			<path d="M187.64,60V30h12.58v3.85h-7.11v8.62h5.59v3.81h-5.59v9.92h7.18V60Z"/>
			<path d="M229.41,60V30h5.47v26.2h7.26V60Z"/>
			<path d="M251.94,60l6-30h5.85l6,30h-5.06l-1.19-6.91H258.3L257.08,60Zm6.92-10.39h4.07l-2-12.58Z"/>
		</g>
	</g>
</svg>
