<svg xmlns="http://www.w3.org/2000/svg" viewBox="0 0 400 824"><defs/><path fill="currentColor" d="M369.098 49.674c-3.999 18.252-9.089 24.025-11.325 12.846-.828-4.142-2.331-8.04-3.34-8.664-3.933-2.43-4.233 6.184-.683 19.561 6.213 23.407 7.333 19.658-29.579 99.038-8.074 17.366-23.631 33.533-32.265 33.533-1.598 0-4.608 1.483-6.687 3.295-12.596 10.975-52.027 28.13-58.197 25.319-9.304-4.239-10.065-11.899-2.768-27.851 21.686-47.412-8.681-92.448-43.567-64.612-4.387 3.5-9.166 6.364-10.621 6.364-5.522 0-9.197 14.98-7.02 28.613 1.146 7.174 1.621 13.506 1.057 14.07-.564.565 3.076 8.707 8.089 18.094 16.079 30.109 6.534 35.098-30.732 16.059-13.097-6.691-25.224-12.191-26.948-12.223-9.859-.183-24.034-15.899-33.434-37.068-5.265-11.856-14.344-31.865-20.176-44.463-11.803-25.499-12.341-29.597-6.598-50.252 2.929-10.537 3.292-15.114 1.35-17.056-1.941-1.941-3.186-.598-4.638 5.004-3.719 14.354-7.067 10.141-14.134-17.784-1.75-6.919-1.855-6.968-2.813-1.32l-.994 5.866-4.7-5.866-4.699-5.866 1.448 8.384c1.294 7.488 1.089 7.936-1.922 4.191-5.531-6.877-6.4-4.835-2.897 6.806 3.252 10.804 3.229 10.923-1.312 6.814-2.542-2.3-4.622-3.645-4.622-2.989 0 3.5 9.769 28.549 14.782 37.904 3.186 5.946 7.21 18.88 8.942 28.742 8.37 47.666 23.926 86.9 39.566 99.793 22.495 18.541 45.514 52.514 52.529 77.524 6.735 24.01 11.223 135.604 6.449 160.356-1.142 5.916-1.378 11.844-.526 13.173.853 1.329 1.789 23.973 2.082 50.32.84 75.696.618 87.634-1.944 104.192-1.324 8.563-2.193 40.898-1.931 71.856.443 52.306.128 57.05-4.453 67.066-10.173 22.243-7.277 31.138 10.14 31.138 23.026 0 24.686-5.187 29.905-93.413 1.207-20.419 3.343-46.288 4.746-57.485 1.403-11.198 2.559-27.547 2.569-36.332.017-14.607 9.442-51.719 19.515-76.842 4.195-10.46 8.737-7.937 12.936 7.186 2.103 7.574 5.367 18.545 7.253 24.378 1.885 5.834 3.467 18.229 3.514 27.545.047 9.317 1.136 27.717 2.419 40.891 1.284 13.174 2.975 44.431 3.759 69.461.783 25.03 2.389 46.533 3.568 47.784 1.179 1.252 2.16 9.336 2.18 17.965.056 24.87 9.954 35.548 26.953 29.076 10.953-4.169 12.325-12.422 4.93-29.667-6.807-15.876-8.35-55.816-3.081-79.771 1.188-5.402 2.727-57.505 3.42-115.784.693-58.28 1.656-106.674 2.141-107.543.485-.87-.242-19.701-1.616-41.848-5.903-95.185 1.997-138.465 31.028-169.993 9.695-10.528 17.68-20.88 17.746-23.004.065-2.124 5.515-8.173 12.109-13.442 18.944-15.137 31.172-42.614 41.596-93.468 3.505-17.096 8.594-34.856 11.311-39.467 9.294-15.775 17.476-43.658 10.15-34.589-3.941 4.879-3.861 2.134.427-14.512 1.059-4.111.513-3.941-3.844 1.197l-5.079 5.988 1.449-8.383c1.294-7.489 1.089-7.936-1.923-4.192-4.458 5.544-5.938 5.287-6.909-1.197-.484-3.235-2.115.584-4.081 9.554"/></svg>
